<?xml version="1.0" encoding="UTF-8"?>
<svg version="1.1" xmlns="http://www.w3.org/2000/svg" width="256" height="256">
<path d="M0 0 C1.88369856 0.62294808 3.76739722 1.24589585 5.65110016 1.86883068 C8.32901676 2.75744155 11.0036252 3.65581447 13.67848206 4.55358505 C17.1122933 5.70370857 20.54987116 6.84244716 23.98730469 7.98168945 C28.14650047 9.36074062 32.30542707 10.74056532 36.46270752 12.12538147 C44.97937342 14.96166394 53.50593545 17.76478673 62.046875 20.52734375 C63.06142761 20.855672 64.07598022 21.18400024 65.12127686 21.52227783 C68.91762809 22.74993729 72.71438653 23.97630742 76.5123291 25.19903564 C79.05074049 26.016794 81.58797266 26.83811619 84.125 27.66015625 C84.8667749 27.89775162 85.6085498 28.13534698 86.37280273 28.38014221 C91.37076999 30.00358249 91.37076999 30.00358249 92.484375 31.1171875 C92.5845241 33.31196441 92.61518719 35.5099715 92.6171875 37.70703125 C92.61814423 38.3667543 92.61910095 39.02647736 92.62008667 39.70619202 C92.62076836 41.10417781 92.61891486 42.50216674 92.61474609 43.90014648 C92.60940606 46.04222732 92.61468699 48.18409767 92.62109375 50.32617188 C92.6204328 51.68229213 92.61915129 53.03841226 92.6171875 54.39453125 C92.61605957 55.63452881 92.61493164 56.87452637 92.61376953 58.15209961 C92.484375 61.1171875 92.484375 61.1171875 91.484375 63.1171875 C91.38010177 64.68802921 91.3378549 66.26317756 91.32615662 67.83743286 C91.3163678 68.83305237 91.30657898 69.82867187 91.29649353 70.85446167 C91.29073807 71.95065826 91.2849826 73.04685486 91.27905273 74.17626953 C91.26915314 75.32748291 91.25925354 76.47869629 91.24905396 77.66479492 C91.21736767 81.48484208 91.19265335 85.3049017 91.16796875 89.125 C91.14740538 91.76773407 91.12640908 94.41046481 91.10499573 97.05319214 C91.05505091 103.30756008 91.01011874 109.56195366 90.96697336 115.8163718 C90.91761626 122.93602297 90.86269248 130.05562776 90.80729377 137.17523408 C90.69344628 151.82250798 90.58661327 166.46982803 90.484375 181.1171875 C89.47859909 181.56227158 88.47282318 182.00735565 87.43656921 182.46592712 C83.6212165 184.15485929 79.80684052 185.84598818 75.99272156 187.53770447 C74.35754057 188.26262714 72.72211267 188.98699317 71.08641052 189.71073914 C60.09563844 194.57438544 49.16392187 199.54547432 38.296875 204.6796875 C36.92981087 205.32501497 35.56274544 205.97033967 34.19567871 206.61566162 C33.55103731 206.92004843 32.90639591 207.22443523 32.24221992 207.53804588 C21.46785198 212.62473384 10.61911182 217.54580676 -0.23510742 222.45922852 C-0.91027908 222.76487228 -1.58545074 223.07051605 -2.28108215 223.38542175 C-4.10940889 224.21262062 -5.9382325 225.03872102 -7.76708984 225.86474609 C-9.36127247 226.5911768 -10.94868663 227.33371831 -12.515625 228.1171875 C-17.83333596 228.66916491 -21.68438441 227.01097983 -26.3671875 224.7421875 C-27.1265007 224.38613434 -27.8858139 224.03008118 -28.6681366 223.66323853 C-30.30700633 222.89346748 -31.94348756 222.11859475 -33.57778931 221.33917236 C-37.95908359 219.25012884 -42.35782633 217.19832008 -46.75390625 215.140625 C-47.65245834 214.71872894 -48.55101044 214.29683289 -49.47679138 213.8621521 C-58.37117745 209.69400597 -67.34065815 205.70456402 -76.328125 201.7421875 C-87.12664618 196.96870215 -97.9090547 192.16462206 -108.640625 187.2421875 C-109.72577393 186.74799316 -110.81092285 186.25379883 -111.92895508 185.74462891 C-112.90888428 185.29265137 -113.88881348 184.84067383 -114.8984375 184.375 C-115.74809082 183.9845752 -116.59774414 183.59415039 -117.47314453 183.19189453 C-119.515625 182.1171875 -119.515625 182.1171875 -121.515625 180.1171875 C-121.75613403 178.22403049 -121.75613403 178.22403049 -121.74267578 175.87269592 C-121.74253479 174.98238174 -121.7423938 174.09206757 -121.74224854 173.17477417 C-121.73191589 172.19549957 -121.72158325 171.21622498 -121.7109375 170.20727539 C-121.70801697 169.17792374 -121.70509644 168.14857208 -121.7020874 167.08802795 C-121.6944622 164.84755102 -121.68221525 162.60708625 -121.66595459 160.36665535 C-121.64051499 156.82452616 -121.6274188 153.28254602 -121.61767578 149.74034119 C-121.59087539 140.94154192 -121.54247828 132.14288401 -121.49487305 123.34417725 C-121.45548684 115.91453804 -121.42417254 108.48495117 -121.40374756 101.05523491 C-121.39074317 97.55911292 -121.36572533 94.06320477 -121.34033203 90.56715393 C-121.33306878 88.43026926 -121.32636509 86.29338259 -121.3203125 84.15649414 C-121.30997986 83.17924377 -121.29964722 82.20199341 -121.28900146 81.19512939 C-121.28886047 80.30199539 -121.28871948 79.40886139 -121.28857422 78.48866272 C-121.284133 77.71234529 -121.27969177 76.93602785 -121.27511597 76.13618565 C-121.3987303 73.80244529 -121.3987303 73.80244529 -123.515625 71.1171875 C-123.75613403 69.23786926 -123.75613403 69.23786926 -123.74267578 67.10473633 C-123.74252472 66.30413284 -123.74237366 65.50352936 -123.74221802 64.67866516 C-123.73189545 63.81919785 -123.72157288 62.95973053 -123.7109375 62.07421875 C-123.7081076 61.1906218 -123.70527771 60.30702484 -123.70236206 59.39665222 C-123.69116597 56.57419296 -123.66606251 53.75205088 -123.640625 50.9296875 C-123.63059446 49.01628062 -123.62146874 47.10286877 -123.61328125 45.18945312 C-123.59122851 40.49857568 -123.55670262 35.80793537 -123.515625 31.1171875 C-114.07300273 27.10340399 -104.33775044 24.06274534 -94.578125 20.9296875 C-81.8863854 16.84270215 -69.21765295 12.69890159 -56.58984375 8.41796875 C-54.26491237 7.63234703 -51.93996133 6.84678347 -49.61499023 6.0612793 C-46.20382671 4.90836196 -42.79406839 3.7519395 -39.38796997 2.58413696 C-36.20963572 1.49470858 -33.02719677 0.41813003 -29.84375 -0.65625 C-28.42922798 -1.14740547 -28.42922798 -1.14740547 -26.98612976 -1.64848328 C-16.80465247 -5.05662645 -9.99241281 -3.38073689 0 0 Z " fill="#593A20" transform="translate(143.515625,15.8828125)"/>
<path d="M0 0 C1.88369965 0.62287899 3.76739932 1.24575789 5.65110016 1.86863327 C8.32903589 2.75718674 11.00365376 3.65552703 13.67848206 4.55338287 C17.11242955 5.70388973 20.54992619 6.84367995 23.98730469 7.98388672 C28.14642861 9.36393272 32.305349 10.7445566 36.46270752 12.12991333 C44.97568785 14.96514522 53.50221158 17.7535511 62.046875 20.4921875 C63.06142761 20.81814911 64.07598022 21.14411072 65.12127686 21.47994995 C68.91686324 22.69904818 72.7124471 23.91794307 76.5123291 25.12359619 C79.05204263 25.93000916 81.58875161 26.74526729 84.125 27.5625 C84.8667749 27.79493408 85.6085498 28.02736816 86.37280273 28.2668457 C88.09627862 28.82646993 89.79407178 29.46417645 91.484375 30.1171875 C91.814375 30.7771875 92.144375 31.4371875 92.484375 32.1171875 C72.62439017 41.34779389 52.74229655 50.51265059 32.70181274 59.34570312 C24.65398171 62.89422005 16.63181366 66.48434352 8.671875 70.2265625 C7.96893814 70.55690491 7.26600128 70.88724731 6.54176331 71.2276001 C3.21689288 72.79305171 -0.10333336 74.36760801 -3.41821289 75.95410156 C-4.57571045 76.50291992 -5.73320801 77.05173828 -6.92578125 77.6171875 C-7.93777588 78.101875 -8.94977051 78.5865625 -9.99243164 79.0859375 C-12.515625 80.1171875 -12.515625 80.1171875 -15.515625 80.1171875 C-15.515625 89.3571875 -15.515625 98.5971875 -15.515625 108.1171875 C-20.515625 107.1171875 -20.515625 107.1171875 -22.515625 106.1171875 C-22.515625 109.0871875 -22.515625 112.0571875 -22.515625 115.1171875 C-24.12147993 114.49653813 -25.72525117 113.8704957 -27.328125 113.2421875 C-28.22144531 112.89414063 -29.11476563 112.54609375 -30.03515625 112.1875 C-32.515625 111.1171875 -32.515625 111.1171875 -35.515625 109.1171875 C-35.80859375 106.734375 -35.80859375 106.734375 -35.703125 103.9921875 C-35.66251953 102.62707031 -35.66251953 102.62707031 -35.62109375 101.234375 C-35.58628906 100.53570312 -35.55148438 99.83703125 -35.515625 99.1171875 C-36.299375 98.9728125 -37.083125 98.8284375 -37.890625 98.6796875 C-40.515625 98.1171875 -40.515625 98.1171875 -42.515625 97.1171875 C-42.515625 99.7571875 -42.515625 102.3971875 -42.515625 105.1171875 C-47.265625 104.2421875 -47.265625 104.2421875 -49.515625 103.1171875 C-49.515625 106.0871875 -49.515625 109.0571875 -49.515625 112.1171875 C-55.390625 110.2421875 -55.390625 110.2421875 -56.515625 109.1171875 C-56.58768011 107.43109784 -56.59948568 105.74218091 -56.578125 104.0546875 C-56.56910156 103.13558594 -56.56007813 102.21648437 -56.55078125 101.26953125 C-56.53917969 100.55925781 -56.52757813 99.84898438 -56.515625 99.1171875 C-58.165625 98.7871875 -59.815625 98.4571875 -61.515625 98.1171875 C-61.845625 100.7571875 -62.175625 103.3971875 -62.515625 106.1171875 C-68.390625 104.2421875 -68.390625 104.2421875 -69.515625 103.1171875 C-69.60214111 101.70148627 -69.62267404 100.2815925 -69.61328125 98.86328125 C-69.61005859 98.00927734 -69.60683594 97.15527344 -69.60351562 96.27539062 C-69.59094727 94.92864258 -69.59094727 94.92864258 -69.578125 93.5546875 C-69.57361328 92.65298828 -69.56910156 91.75128906 -69.56445312 90.82226562 C-69.55262725 88.58717436 -69.5361472 86.35221313 -69.515625 84.1171875 C-70.299375 83.8078125 -71.083125 83.4984375 -71.890625 83.1796875 C-74.515625 82.1171875 -74.515625 82.1171875 -76.515625 81.1171875 C-76.515625 84.0871875 -76.515625 87.0571875 -76.515625 90.1171875 C-78.825625 89.4571875 -81.135625 88.7971875 -83.515625 88.1171875 C-83.515625 81.5171875 -83.515625 74.9171875 -83.515625 68.1171875 C-86.485625 67.1271875 -86.485625 67.1271875 -89.515625 66.1171875 C-89.515625 75.3571875 -89.515625 84.5971875 -89.515625 94.1171875 C-95.515625 92.1171875 -95.515625 92.1171875 -96.515625 91.1171875 C-96.58768011 89.43109784 -96.59948568 87.74218091 -96.578125 86.0546875 C-96.56910156 85.13558594 -96.56007813 84.21648437 -96.55078125 83.26953125 C-96.53917969 82.55925781 -96.52757813 81.84898438 -96.515625 81.1171875 C-97.10730469 80.93542969 -97.69898437 80.75367187 -98.30859375 80.56640625 C-100.72920961 79.79638979 -103.121592 78.96590823 -105.515625 78.1171875 C-106.52625 77.7665625 -107.536875 77.4159375 -108.578125 77.0546875 C-111.07717273 74.55563977 -110.8086041 73.39464758 -110.828125 69.9296875 C-110.74773347 68.32415376 -110.6508653 66.71903376 -110.515625 65.1171875 C-112.165625 64.7871875 -113.815625 64.4571875 -115.515625 64.1171875 C-115.845625 66.7571875 -116.175625 69.3971875 -116.515625 72.1171875 C-117.835625 71.7871875 -119.155625 71.4571875 -120.515625 71.1171875 C-120.845625 72.1071875 -121.175625 73.0971875 -121.515625 74.1171875 C-123.545293 71.0726855 -123.76418801 70.51442422 -123.74267578 67.10473633 C-123.74252472 66.30413284 -123.74237366 65.50352936 -123.74221802 64.67866516 C-123.73189545 63.81919785 -123.72157288 62.95973053 -123.7109375 62.07421875 C-123.7081076 61.1906218 -123.70527771 60.30702484 -123.70236206 59.39665222 C-123.69116597 56.57419296 -123.66606251 53.75205088 -123.640625 50.9296875 C-123.63059446 49.01628062 -123.62146874 47.10286877 -123.61328125 45.18945312 C-123.59122851 40.49857568 -123.55670262 35.80793537 -123.515625 31.1171875 C-114.07300273 27.10340399 -104.33775044 24.06274534 -94.578125 20.9296875 C-81.8863854 16.84270215 -69.21765295 12.69890159 -56.58984375 8.41796875 C-54.26491237 7.63234703 -51.93996133 6.84678347 -49.61499023 6.0612793 C-46.20382671 4.90836196 -42.79406839 3.7519395 -39.38796997 2.58413696 C-36.20963572 1.49470858 -33.02719677 0.41813003 -29.84375 -0.65625 C-28.42922798 -1.14740547 -28.42922798 -1.14740547 -26.98612976 -1.64848328 C-16.80463061 -5.05663377 -9.99243585 -3.38070137 0 0 Z " fill="#5D9C32" transform="translate(143.515625,15.8828125)"/>
<path d="M0 0 C1.98 0.66 3.96 1.32 6 2 C5.88205078 2.97839844 5.88205078 2.97839844 5.76171875 3.9765625 C5.67486469 7.07588112 5.79572006 9.12190138 7 12 C9.95712307 13.76309191 9.95712307 13.76309191 13.5 15 C17.09765625 16.36328125 17.09765625 16.36328125 20 18 C20.99213366 20.82513397 20.98426172 22.77048793 20.65234375 25.73046875 C20.76707031 26.47941406 20.88179687 27.22835937 21 28 C22.98 28.99 24.96 29.98 27 31 C27 21.76 27 12.52 27 3 C28.98 3.66 30.96 4.32 33 5 C33 11.6 33 18.2 33 25 C34.65 25.33 36.3 25.66 38 26 C38.66 26.33 39.32 26.66 40 27 C40 24.03 40 21.06 40 18 C44.75 19.875 44.75 19.875 47 21 C47.495 30.405 47.495 30.405 48 40 C49.98 40.99 51.96 41.98 54 43 C54 40.03 54 37.06 54 34 C55.98 34.66 57.96 35.32 60 36 C60.00386719 37.03060547 60.00386719 37.03060547 60.0078125 38.08203125 C60.12619114 40.8402536 60.31449537 43.32265171 61 46 C63.88679844 48.23886732 63.88679844 48.23886732 67 49 C67 46.03 67 43.06 67 40 C69.31 40.66 71.62 41.32 74 42 C74 39.36 74 36.72 74 34 C76.31 34.66 78.62 35.32 81 36 C80.94457031 36.66386719 80.88914062 37.32773438 80.83203125 38.01171875 C80.81016165 41.00785441 80.94953881 43.18011443 82 46 C85.42157708 48.41741859 89.01805471 49.75359208 93 51 C93.33 48.36 93.66 45.72 94 43 C99.875 44.875 99.875 44.875 101 46 C101.09584998 47.54353131 101.1218807 49.09145108 101.12025452 50.63795471 C101.12231651 52.14194321 101.12231651 52.14194321 101.12442017 53.67631531 C101.11902725 55.34002922 101.11902725 55.34002922 101.11352539 57.03735352 C101.11367142 58.19817444 101.11381744 59.35899536 101.1139679 60.55499268 C101.11326817 64.41298252 101.10547298 68.27092478 101.09765625 72.12890625 C101.09579228 74.79548728 101.09431912 77.46206564 101.09336853 80.12864685 C101.09025548 86.4432888 101.08204244 92.75791351 101.07201904 99.07254785 C101.0608571 106.25985633 101.05534725 113.44716561 101.05032361 120.6344806 C101.0398598 135.42299589 101.02226086 150.21149765 101 165 C96.54651897 164.19952404 92.75664878 162.66870273 88.68359375 160.74609375 C87.96734833 160.4136969 87.25110291 160.08130005 86.51315308 159.73883057 C84.96384165 159.01946222 83.41559861 158.29778935 81.86831665 157.57406616 C77.70164538 155.62587416 73.52657524 153.69586122 69.3515625 151.765625 C68.49252823 151.36812546 67.63349396 150.97062592 66.74842834 150.56108093 C57.9770541 146.51104426 49.14958592 142.59151459 40.3125 138.6875 C29.47329027 133.89112287 18.64902109 129.06634305 7.875 124.125 C6.24751831 123.38382935 6.24751831 123.38382935 4.5871582 122.62768555 C3.60706787 122.17562744 2.62697754 121.72356934 1.6171875 121.2578125 C0.76753418 120.8673877 -0.08211914 120.47696289 -0.95751953 120.07470703 C-3 119 -3 119 -5 117 C-5.24888897 115.12525368 -5.24888897 115.12525368 -5.24723816 112.80020142 C-5.25143265 111.91974655 -5.25562714 111.03929169 -5.25994873 110.13215637 C-5.25432922 109.16380356 -5.24870972 108.19545074 -5.24291992 107.19775391 C-5.24481827 106.17976212 -5.24671661 105.16177032 -5.24867249 104.1129303 C-5.25238938 100.73406369 -5.24166159 97.35541015 -5.23046875 93.9765625 C-5.22927717 91.63487778 -5.22882374 89.29319258 -5.2290802 86.95150757 C-5.22751366 82.03697733 -5.2192121 77.12251977 -5.20581055 72.20800781 C-5.18883921 65.90391895 -5.18499561 59.59991019 -5.18575573 53.29580116 C-5.18548392 48.45744052 -5.18000056 43.61909745 -5.17275429 38.78074265 C-5.16956849 36.45628365 -5.16760042 34.13182266 -5.16686058 31.8073616 C-5.16469505 28.5585516 -5.15594548 25.30982687 -5.14526367 22.06103516 C-5.14571686 21.0967308 -5.14617004 20.13242645 -5.14663696 19.13890076 C-5.14237198 18.25280624 -5.13810699 17.36671173 -5.13371277 16.45376587 C-5.13203692 15.68574457 -5.13036108 14.91772327 -5.12863445 14.1264286 C-4.99827554 11.97149336 -4.59166129 10.07188474 -4 8 C-2.02 8.495 -2.02 8.495 0 9 C0 6.03 0 3.06 0 0 Z " fill="#764D2B" transform="translate(27,79)"/>
<path d="M0 0 C0.07420211 4.07502794 0.1286257 8.14979392 0.16479492 12.2253418 C0.17987397 13.61147919 0.2003405 14.99756894 0.22631836 16.38354492 C0.26273716 18.37658146 0.27813018 20.36996723 0.29296875 22.36328125 C0.3086792 23.56251221 0.32438965 24.76174316 0.34057617 25.99731445 C0 29 0 29 -1.51831055 30.91479492 C-2.00726807 31.2729126 -2.49622559 31.63103027 -3 32 C-3 31.01 -3 30.02 -3 29 C-3.66 29.33 -4.32 29.66 -5 30 C-4.96761289 31.56341408 -4.89885343 33.12613663 -4.8125 34.6875 C-4.98828125 37.41015625 -4.98828125 37.41015625 -6 40 C-9.74149535 42.55944327 -15.30217632 46 -20 46 C-20 43.03 -20 40.06 -20 37 C-22.31 37.66 -24.62 38.32 -27 39 C-26.94199219 39.68707031 -26.88398438 40.37414062 -26.82421875 41.08203125 C-26.68835983 43.79532787 -26.63984417 46.30534011 -27 49 C-29.43850852 51.18182341 -30.7321149 52 -34 52 C-33.94199219 52.68707031 -33.88398438 53.37414062 -33.82421875 54.08203125 C-33.68835983 56.79532787 -33.63984417 59.30534011 -34 62 C-36.43850852 64.18182341 -37.7321149 65 -41 65 C-41 62.03 -41 59.06 -41 56 C-42.98 56.66 -44.96 57.32 -47 58 C-47 61.3 -47 64.6 -47 68 C-49.31 68.99 -51.62 69.98 -54 71 C-54.495 62.09 -54.495 62.09 -55 53 C-56.98 53.66 -58.96 54.32 -61 55 C-60.94199219 55.68707031 -60.88398438 56.37414062 -60.82421875 57.08203125 C-60.68835983 59.79532787 -60.63984417 62.30534011 -61 65 C-63.43850852 67.18182341 -64.7321149 68 -68 68 C-68.495 59.09 -68.495 59.09 -69 50 C-71.475 50.495 -71.475 50.495 -74 51 C-73.97381592 51.86278564 -73.94763184 52.72557129 -73.9206543 53.61450195 C-73.83540182 56.8180525 -73.77273732 60.02102496 -73.7253418 63.2253418 C-73.70020781 64.61160304 -73.66609408 65.99773187 -73.62280273 67.38354492 C-73.56211604 69.37621037 -73.53645121 71.36984533 -73.51171875 73.36328125 C-73.48553467 74.56251221 -73.45935059 75.76174316 -73.43237305 76.99731445 C-74 80 -74 80 -76.40551758 81.91479492 C-79 83 -79 83 -81 83 C-81 80.03 -81 77.06 -81 74 C-81.84304687 74.433125 -82.68609375 74.86625 -83.5546875 75.3125 C-84.65039062 75.869375 -85.74609375 76.42625 -86.875 77 C-87.96554688 77.556875 -89.05609375 78.11375 -90.1796875 78.6875 C-93 80 -93 80 -95 80 C-95 77.03 -95 74.06 -95 71 C-98.09748698 71.83752779 -98.09748698 71.83752779 -101 74 C-101.47373053 76.13489935 -101.47373053 76.13489935 -101.5 78.5 C-101.58984375 80.90234375 -101.58984375 80.90234375 -102 83 C-105.0625 85.0625 -105.0625 85.0625 -108 86 C-109.15536808 77.74255184 -108.93486478 69.68686668 -108.5625 61.375 C-108.51029297 60.08464844 -108.45808594 58.79429688 -108.40429688 57.46484375 C-108.2757492 54.30958261 -108.14084196 51.1547322 -108 48 C-107.1241626 47.61481201 -106.2483252 47.22962402 -105.34594727 46.83276367 C-87.17050689 38.8311399 -69.06643459 30.69345246 -51.0625 22.3125 C-39.38622492 16.87961338 -27.70802987 11.45401223 -15.96408081 6.16854858 C-14.70773835 5.60297168 -13.45196863 5.03612058 -12.19680786 4.46792603 C-10.49886336 3.69994634 -8.79833518 2.93768642 -7.09765625 2.17578125 C-6.15414307 1.75208252 -5.21062988 1.32838379 -4.23852539 0.8918457 C-2 0 -2 0 0 0 Z " fill="#436928" transform="translate(236,48)"/>
</svg>
