<svg version="1.1" xmlns="http://www.w3.org/2000/svg" width="1426" height="396">

<path d="M0 0 C0.825 0.804375 1.65 1.60875 2.5 2.4375 C2.5 3.0975 2.5 3.7575 2.5 4.4375 C3.16 4.4375 3.82 4.4375 4.5 4.4375 C5.14730804 6.99963554 5.79289288 9.56218485 6.4375 12.125 C6.71110352 13.2068457 6.71110352 13.2068457 6.99023438 14.31054688 C7.91825907 18.00577248 8.79798461 21.69095469 9.5 25.4375 C10.16 25.4375 10.82 25.4375 11.5 25.4375 C13.15 32.3675 14.8 39.2975 16.5 46.4375 C17.16 46.4375 17.82 46.4375 18.5 46.4375 C19.82 40.1675 21.14 33.8975 22.5 27.4375 C23.16 27.4375 23.82 27.4375 24.5 27.4375 C24.603125 26.550625 24.70625 25.66375 24.8125 24.75 C25.63419325 18.90147745 27.12794088 13.17598624 28.5 7.4375 C29.16 7.4375 29.82 7.4375 30.5 7.4375 C30.83 4.4675 31.16 1.4975 31.5 -1.5625 C32.16 -1.5625 32.82 -1.5625 33.5 -1.5625 C33.5 -2.2225 33.5 -2.8825 33.5 -3.5625 C43.68914917 -5.67360796 55.40679439 -6.92690187 65.5 -3.5625 C65.5 -2.9025 65.5 -2.2425 65.5 -1.5625 C66.11875 -1.294375 66.7375 -1.02625 67.375 -0.75 C69.5 0.4375 69.5 0.4375 71.5 3.4375 C71.89477539 5.35668945 71.89477539 5.35668945 72.09765625 7.55078125 C72.17628906 8.37586182 72.25492188 9.20094238 72.3359375 10.05102539 C72.44808594 11.38701782 72.44808594 11.38701782 72.5625 12.75 C72.68818359 14.13723267 72.68818359 14.13723267 72.81640625 15.55249023 C73.40340435 22.36315859 73.73973391 29.17007613 74 36 C74.2922131 43.64183542 75.07223193 50.91860629 76.5 58.4375 C78.88995108 72.4195267 78.71056605 86.28746157 78.5 100.4375 C73.34669846 102.9708177 69.66248837 103.80580108 63.8125 103.6875 C62.52988281 103.67203125 61.24726562 103.6565625 59.92578125 103.640625 C53.28700592 103.2469918 53.28700592 103.2469918 50.3125 100.1875 C44.42421797 91.25355485 46.52079586 75.82358947 46.25 65.3515625 C46.22901245 64.54713211 46.2080249 63.74270172 46.18640137 62.91389465 C46.08064494 58.80658723 45.98201136 54.69924788 45.89257812 50.59155273 C45.85555205 49.05191857 45.81844605 47.51228632 45.78125 45.97265625 C45.76771484 45.25772003 45.75417969 44.54278381 45.74023438 43.80618286 C45.66331153 40.76287678 45.46985385 38.34706154 44.5 35.4375 C43.84 38.4075 43.18 41.3775 42.5 44.4375 C41.84 44.4375 41.18 44.4375 40.5 44.4375 C40.45101562 45.02917969 40.40203125 45.62085938 40.3515625 46.23046875 C40.27679687 47.02066406 40.20203125 47.81085938 40.125 48.625 C40.05539062 49.40230469 39.98578125 50.17960937 39.9140625 50.98046875 C39.45895394 53.68106579 38.51999093 55.90120071 37.5 58.4375 C37.14483848 60.22120008 36.83304502 62.01401978 36.5625 63.8125 C35.73499513 68.49958864 34.90795706 72.3095736 32.5 76.4375 C27.28756975 79.92613442 22.48966384 79.92370066 16.4375 79.875 C15.11008789 79.9049707 15.11008789 79.9049707 13.75585938 79.93554688 C9.52708827 79.9323745 7.14277702 79.83632149 3.484375 77.56640625 C-1.32254029 72.40938099 -2.07818898 66.91692627 -2.97265625 60.14453125 C-3.35993384 57.23011683 -3.35993384 57.23011683 -5.5 54.4375 C-6.27653979 51.8131356 -6.97902704 49.21816662 -7.625 46.5625 C-7.80675781 45.85480469 -7.98851562 45.14710938 -8.17578125 44.41796875 C-9.09922489 40.68947827 -9.72613309 37.2817625 -9.5 33.4375 C-10.16 33.4375 -10.82 33.4375 -11.5 33.4375 C-11.49782471 34.44176025 -11.49564941 35.44602051 -11.4934082 36.48071289 C-11.48584547 41.46632728 -11.49076877 46.4518904 -11.5 51.4375 C-11.50175232 52.41740906 -11.50350464 53.39731812 -11.50531006 54.40692139 C-11.52173646 60.79373626 -11.57212195 67.17934452 -11.65258789 73.56567383 C-11.67614512 75.79866842 -11.69024928 78.03178004 -11.69555664 80.26489258 C-11.70478256 83.53015661 -11.74552859 86.79368996 -11.79296875 90.05859375 C-11.78706978 91.55839027 -11.78706978 91.55839027 -11.78105164 93.08848572 C-11.83528145 95.63581349 -11.92906166 97.95464071 -12.5 100.4375 C-16.43509237 104.07642511 -20.73972099 103.89329984 -25.875 103.8125 C-26.60460937 103.82410156 -27.33421875 103.83570313 -28.0859375 103.84765625 C-34.11210433 103.81537321 -38.13593522 102.11953239 -43.5 99.4375 C-46.48718482 91.08094501 -44.43987667 79.86585961 -44.0625 71.125 C-44.02334473 70.19445801 -43.98418945 69.26391602 -43.94384766 68.30517578 C-43.90179199 67.40395996 -43.85973633 66.50274414 -43.81640625 65.57421875 C-43.77974854 64.77717529 -43.74309082 63.98013184 -43.70532227 63.15893555 C-43.54621323 61.05003131 -43.29150864 58.94823253 -42.99829102 56.85375977 C-42.30368213 51.46296249 -42.2959458 46.06890173 -42.2109375 40.640625 C-42.15681923 38.3606319 -42.10077277 36.08068389 -42.04296875 33.80078125 C-41.95373999 30.23015174 -41.87464867 26.66080958 -41.82763672 23.08935547 C-41.77873307 19.62574294 -41.68635548 16.16557733 -41.5859375 12.703125 C-41.57921524 11.09839325 -41.57921524 11.09839325 -41.57235718 9.46124268 C-41.3104533 2.27985734 -41.3104533 2.27985734 -38.97589111 -0.14660645 C-36.12001056 -1.86973169 -33.82860217 -2.5625 -30.5 -2.5625 C-30.5 -3.2225 -30.5 -3.8825 -30.5 -4.5625 C-19.66489945 -6.53251828 -9.00493292 -7.07829611 0 0 Z " fill="#5A9D4D" transform="translate(477.5,149.5625)" data-index="1" style="opacity: 1; visibility: visible;"></path>
<path d="M0 0 C4.62566882 3.74507104 6.96389166 8.47342021 9 14 C9.2784375 14.68578125 9.556875 15.3715625 9.84375 16.078125 C11.31150434 19.74751085 12 21.93211885 12 26 C12.66 26 13.32 26 14 26 C14.495 30.455 14.495 30.455 15 35 C15.66 35 16.32 35 17 35 C17.99 40.28 18.98 45.56 20 51 C20.66 50.67 21.32 50.34 22 50 C22.56063562 48.16850982 22.56063562 48.16850982 22.8515625 45.96484375 C22.98046875 45.15595703 23.109375 44.34707031 23.2421875 43.51367188 C23.43167969 42.2384668 23.43167969 42.2384668 23.625 40.9375 C23.7590625 40.08349609 23.893125 39.22949219 24.03125 38.34960938 C24.36213574 36.23430411 24.68208799 34.11729396 25 32 C25.66 32 26.32 32 27 32 C27.33 29.36 27.66 26.72 28 24 C28.66 24 29.32 24 30 24 C30.11214844 22.99839844 30.22429687 21.99679688 30.33984375 20.96484375 C30.91172035 16.96170753 32.15365825 13.35553549 33.5625 9.5625 C34.01753906 8.32628906 34.47257812 7.09007812 34.94140625 5.81640625 C35.46541016 4.42228516 35.46541016 4.42228516 36 3 C36.66 3 37.32 3 38 3 C38 2.34 38 1.68 38 1 C38.99 1 39.98 1 41 1 C41 0.34 41 -0.32 41 -1 C50.18364036 -2.36053931 60.53625504 -3.68236213 69 1 C73.34670097 4.80971622 75.63719129 8.27219464 76.13696289 14.05175781 C76.17426514 14.79780273 76.21156738 15.54384766 76.25 16.3125 C76.31243896 17.11139648 76.37487793 17.91029297 76.43920898 18.73339844 C76.57458737 20.50385996 76.69758181 22.27529943 76.81005859 24.04736328 C77.09398813 28.46104425 77.44831771 32.86886426 77.79394531 37.27807617 C77.96987459 39.55252182 78.14001368 41.82742448 78.30371094 44.1027832 C78.60302838 48.23355336 78.90304722 52.32517786 79.4921875 56.42578125 C80.29448101 62.07269328 80.65518609 67.75021894 81.0625 73.4375 C81.19664307 75.30100098 81.19664307 75.30100098 81.33349609 77.20214844 C81.9461252 86.15703558 82.2507983 95.0269941 82 104 C75.14026943 107.97253214 68.74126343 107.74732029 61 107 C57.70474217 106.10726083 54.7351597 105.07566688 52 103 C50.70216452 99.10649357 50.62995712 95.30052826 50.44140625 91.234375 C50.39915421 90.35247498 50.35690216 89.47057495 50.31336975 88.56195068 C49.85778079 78.12569567 49.89040784 67.6937964 49.9375 57.25 C49.94253481 55.26953241 49.94709415 53.28906355 49.95117188 51.30859375 C49.96199813 46.53903015 49.97914854 41.76952987 50 37 C49.34 37 48.68 37 48 37 C47.01 41.95 46.02 46.9 45 52 C44.34 52 43.68 52 43 52 C42.814375 53.546875 42.814375 53.546875 42.625 55.125 C42 59 42 59 41.0625 61.75 C39.5396658 66.40808107 38.80725015 71.17367463 38 76 C37.34 76 36.68 76 36 76 C36 77.32 36 78.64 36 80 C30.58953392 83.37484518 26.04628967 83.45584659 19.875 83.375 C18.53501953 83.39240234 18.53501953 83.39240234 17.16796875 83.41015625 C13.57250036 83.39403307 10.78961199 83.37187378 7.51171875 81.828125 C5.55277775 79.4591731 4.81604701 77.31870296 3.9375 74.375 C3.44830078 72.77591797 3.44830078 72.77591797 2.94921875 71.14453125 C2.63597656 70.10683594 2.32273438 69.06914062 2 68 C1.42129371 66.35253402 0.83851937 64.70648604 0.25 63.0625 C-0.79964735 59.94192681 -1.3219398 57.32671127 -1 54 C-1.66 54 -2.32 54 -3 54 C-3.48009262 51.93771534 -3.95903544 49.87516299 -4.4375 47.8125 C-4.70433594 46.66394531 -4.97117188 45.51539063 -5.24609375 44.33203125 C-5.87312201 41.56076125 -6.45899177 38.78908126 -7 36 C-7.66 36 -8.32 36 -9 36 C-8.99214478 37.94604126 -8.99214478 37.94604126 -8.98413086 39.93139648 C-8.96608531 44.72647415 -8.95456963 49.5215488 -8.94506836 54.31665039 C-8.94002712 56.39543156 -8.93319426 58.47420916 -8.92456055 60.55297852 C-8.91248578 63.53402586 -8.90676976 66.51502649 -8.90234375 69.49609375 C-8.89718246 70.43150497 -8.89202118 71.3669162 -8.88670349 72.33067322 C-8.88659019 73.62189842 -8.88659019 73.62189842 -8.88647461 74.93920898 C-8.884254 75.70087875 -8.88203339 76.46254852 -8.87974548 77.24729919 C-9 79 -9 79 -10 80 C-10.15786308 81.85174706 -10.25107356 83.7090911 -10.31640625 85.56640625 C-10.35830078 86.69111328 -10.40019531 87.81582031 -10.44335938 88.97460938 C-10.48267578 90.15861328 -10.52199219 91.34261719 -10.5625 92.5625 C-10.60568359 93.75037109 -10.64886719 94.93824219 -10.69335938 96.16210938 C-10.79983546 99.10794784 -10.90184841 102.0538743 -11 105 C-21.47758659 107.35787619 -21.47758659 107.35787619 -26.8125 106.75 C-27.68519531 106.66234375 -28.55789062 106.5746875 -29.45703125 106.484375 C-33.77635143 105.66164735 -37.22679704 104.5169323 -40 101 C-40.35644531 98.71704102 -40.35644531 98.71704102 -40.328125 96.00390625 C-40.32369385 94.98296875 -40.3192627 93.96203125 -40.31469727 92.91015625 C-40.29334717 91.80542969 -40.27199707 90.70070313 -40.25 89.5625 C-40.23831787 88.42554688 -40.22663574 87.28859375 -40.21459961 86.1171875 C-40.09907351 77.24284742 -39.85036496 68.37027084 -39.5625 59.5 C-39.52350586 58.2838501 -39.48451172 57.0677002 -39.44433594 55.81469727 C-39.40211914 54.68990967 -39.35990234 53.56512207 -39.31640625 52.40625 C-39.27974854 51.40916016 -39.24309082 50.41207031 -39.20532227 49.38476562 C-39 47 -39 47 -38 45 C-37.80882442 42.04912447 -37.67109299 39.11436046 -37.5703125 36.16015625 C-37.49666977 34.35739825 -37.42243263 32.55466446 -37.34765625 30.75195312 C-37.23404538 27.90356627 -37.12474797 25.05523773 -37.02587891 22.20629883 C-36.92848842 19.46107488 -36.81327473 16.71706275 -36.6953125 13.97265625 C-36.67018585 13.11946304 -36.6450592 12.26626984 -36.61917114 11.38722229 C-36.58258392 10.59307419 -36.5459967 9.79892609 -36.50830078 8.98071289 C-36.48244904 8.28281143 -36.45659729 7.58490997 -36.42996216 6.86585999 C-35.87513544 4.45813884 -34.92299597 3.5101782 -33 2 C-32.34 2 -31.68 2 -31 2 C-31 1.34 -31 0.68 -31 0 C-21.23478927 -2.11548085 -9.51934709 -4.19370847 0 0 Z " fill="#5B9E4E" transform="translate(117,146)" data-index="2" style="opacity: 1; visibility: visible;"></path>
<path d="M0 0 C2.875 2.5 2.875 2.5 5 5 C5.495 5.495 5.495 5.495 6 6 C6.1219514 8.98666055 6.17865862 11.95058163 6.19287109 14.93847656 C6.20513733 16.34579292 6.20513733 16.34579292 6.21765137 17.78153992 C6.24256065 20.90122834 6.25903627 24.02087108 6.2734375 27.140625 C6.27876118 28.20362572 6.28408485 29.26662643 6.28956985 30.36183929 C6.31632662 35.98910299 6.33569265 41.61634431 6.35009766 47.24365234 C6.36674357 53.06251741 6.41151406 58.88081588 6.4624691 64.69946671 C6.49609674 69.16728378 6.50767029 73.63496574 6.51332474 78.10289764 C6.52005058 80.24794592 6.53530702 82.39298489 6.55921555 84.53791046 C6.59077063 87.54039346 6.59091803 90.54134061 6.58349609 93.54394531 C6.59990143 94.43141953 6.61630676 95.31889374 6.63320923 96.23326111 C6.58816395 100.68230069 6.46466309 102.42344979 3.58145142 106.00091553 C-8.20520485 115.12854093 -19.4814608 118.17799644 -34.25 118.1875 C-35.72919922 118.20586914 -35.72919922 118.20586914 -37.23828125 118.22460938 C-43.72606715 118.23743109 -49.69531564 117.53106328 -56 116 C-56 115.34 -56 114.68 -56 114 C-56.99 114 -57.98 114 -59 114 C-59 113.34 -59 112.68 -59 112 C-60.051875 111.9071875 -60.051875 111.9071875 -61.125 111.8125 C-65.12080087 110.68325193 -67.02810678 108.90277942 -70 106 C-70 105.01 -70 104.02 -70 103 C-70.763125 102.79375 -71.52625 102.5875 -72.3125 102.375 C-75.84182802 100.56929729 -76.44148604 98.56231762 -78 95 C-78.66 94.34 -79.32 93.68 -80 93 C-80.59765625 90.87109375 -80.59765625 90.87109375 -81.0625 88.4375 C-81.46477866 85.4322803 -81.46477866 85.4322803 -83 83 C-83.08713831 81.29227642 -83.10700007 79.58101351 -83.09765625 77.87109375 C-83.09443359 76.83662109 -83.09121094 75.80214844 -83.08789062 74.73632812 C-83.07951172 73.64771484 -83.07113281 72.55910156 -83.0625 71.4375 C-83.05798828 70.34501953 -83.05347656 69.25253906 -83.04882812 68.12695312 C-83.03699826 65.41791505 -83.02051543 62.70898401 -83 60 C-82.34 60 -81.68 60 -81 60 C-80.95875 58.700625 -80.9175 57.40125 -80.875 56.0625 C-80.2778612 50.44761274 -77.73003423 46.18515777 -74 42 C-73.34 42 -72.68 42 -72 42 C-71.7525 41.38125 -71.505 40.7625 -71.25 40.125 C-69.79371361 37.64931313 -68.62187494 37.04874998 -66 36 C-66 35.34 -66 34.68 -66 34 C-63.09399739 32.74335022 -61.20395416 32 -58 32 C-58 31.34 -58 30.68 -58 30 C-54.7 29.67 -51.4 29.34 -48 29 C-48 28.34 -48 27.68 -48 27 C-44.9166866 26.97088679 -41.83340875 26.95316318 -38.75 26.9375 C-37.87730469 26.92912109 -37.00460937 26.92074219 -36.10546875 26.91210938 C-35.26113281 26.90888672 -34.41679688 26.90566406 -33.546875 26.90234375 C-32.77182617 26.89710693 -31.99677734 26.89187012 -31.19824219 26.88647461 C-29.00716402 26.99963002 -27.10362139 27.39447552 -25 28 C-25.00523682 27.18732666 -25.01047363 26.37465332 -25.01586914 25.53735352 C-25.03656994 21.87907678 -25.04963803 18.22081233 -25.0625 14.5625 C-25.07087891 13.28310547 -25.07925781 12.00371094 -25.08789062 10.68554688 C-25.09111328 9.47060547 -25.09433594 8.25566406 -25.09765625 7.00390625 C-25.10289307 5.87799072 -25.10812988 4.7520752 -25.11352539 3.59204102 C-25 1 -25 1 -24 0 C-16.25425799 -1.37287769 -7.65042332 -1.87651893 0 0 Z " fill="#5A9E4E" transform="translate(1320,136)" data-index="3" style="opacity: 1;"></path>
<path d="M0 0 C4.94083419 3.60010532 6.38992029 9.92808037 7.33935547 15.67504883 C7.62489854 18.15927354 7.85528221 20.64024632 8.0546875 23.1328125 C8.19976917 24.80888762 8.34804841 26.48468999 8.5 28.16015625 C8.55945801 28.888396 8.61891602 29.61663574 8.68017578 30.36694336 C8.84253692 32.28948458 8.84253692 32.28948458 9.9296875 34.1953125 C10.30033287 36.96646578 10.6325125 39.72876194 10.9296875 42.5078125 C11.67343199 49.39027797 11.67343199 49.39027797 12.9296875 56.1953125 C16.04755911 46.07218041 18.81131584 35.92839554 21.14135742 25.59301758 C21.70765635 23.11878214 22.31222627 20.65722853 22.9296875 18.1953125 C23.11756836 17.36386719 23.30544922 16.53242188 23.49902344 15.67578125 C24.64537976 11.35557083 25.21297293 9.66242498 29.0703125 7.1484375 C33.41992582 6.0742415 37.22628981 5.82095934 41.6796875 5.9453125 C42.81083984 5.95304688 42.81083984 5.95304688 43.96484375 5.9609375 C47.19403561 6.006823 49.8487898 6.1683466 52.9296875 7.1953125 C52.9296875 7.8553125 52.9296875 8.5153125 52.9296875 9.1953125 C53.55601074 9.42637695 54.18233398 9.65744141 54.82763672 9.89550781 C57.60650047 11.61382031 57.78176797 12.86116887 58.5625 15.9921875 C58.81128906 16.95125 59.06007813 17.9103125 59.31640625 18.8984375 C59.56003906 19.90390625 59.80367187 20.909375 60.0546875 21.9453125 C60.55597299 23.91960612 61.0585426 25.89357422 61.5625 27.8671875 C61.79485352 28.79724609 62.02720703 29.72730469 62.26660156 30.68554688 C62.79800911 32.69691271 63.43682069 34.67976861 64.109375 36.6484375 C64.9296875 39.1953125 64.9296875 39.1953125 64.9296875 43.1953125 C65.5896875 43.1953125 66.2496875 43.1953125 66.9296875 43.1953125 C66.9296875 44.8453125 66.9296875 46.4953125 66.9296875 48.1953125 C67.5896875 48.1953125 68.2496875 48.1953125 68.9296875 48.1953125 C68.9296875 48.8553125 68.9296875 49.5153125 68.9296875 50.1953125 C69.5896875 50.1953125 70.2496875 50.1953125 70.9296875 50.1953125 C70.91808594 49.60105469 70.90648437 49.00679687 70.89453125 48.39453125 C70.8245974 41.97060779 70.99388204 35.56110024 71.9296875 29.1953125 C72.4246875 28.7003125 72.4246875 28.7003125 72.9296875 28.1953125 C73.13736979 26.72134511 73.29684767 25.2403999 73.4296875 23.7578125 C73.82009846 19.41449058 73.82009846 19.41449058 74.9296875 17.1953125 C75.2975679 13.65834188 75.6344616 10.12093195 75.94140625 6.578125 C76.9296875 3.1953125 76.9296875 3.1953125 79.546875 0.7890625 C85.54129115 -2.03509661 91.46049412 -1.69068572 97.9296875 -0.8046875 C101.41998178 0.47724157 103.26249782 1.84839788 104.9296875 5.1953125 C106.36044962 13.14659704 104.41797108 21.36804331 102.9296875 29.1953125 C102.69513972 30.55421112 102.46353642 31.91362018 102.234375 33.2734375 C100.75611244 41.99538344 99.0373747 50.60013422 96.9296875 59.1953125 C96.2696875 59.1953125 95.6096875 59.1953125 94.9296875 59.1953125 C94.95933594 60.04867187 94.98898437 60.90203125 95.01953125 61.78125 C94.9261109 65.33122348 94.33522613 68.37555178 93.4921875 71.8203125 C93.22535156 72.92632812 92.95851563 74.03234375 92.68359375 75.171875 C92.43480469 76.16960937 92.18601562 77.16734375 91.9296875 78.1953125 C91.73246094 78.98679687 91.53523438 79.77828125 91.33203125 80.59375 C91.19925781 81.12226563 91.06648438 81.65078125 90.9296875 82.1953125 C90.2696875 82.1953125 89.6096875 82.1953125 88.9296875 82.1953125 C88.9296875 82.8553125 88.9296875 83.5153125 88.9296875 84.1953125 C82.35338114 88.12553109 77.33196551 88.79082668 69.7421875 88.6328125 C68.28522461 88.64344727 68.28522461 88.64344727 66.79882812 88.65429688 C61.75114858 88.60932098 57.9747399 88.56895251 53.9296875 85.1953125 C51.83424944 82.20182955 51.7297142 79.79483191 51.9296875 76.1953125 C51.2696875 76.1953125 50.6096875 76.1953125 49.9296875 76.1953125 C45.33743237 62.5620551 45.33743237 62.5620551 45.9296875 56.1953125 C45.2696875 56.1953125 44.6096875 56.1953125 43.9296875 56.1953125 C42.9396875 49.2653125 42.9396875 49.2653125 41.9296875 42.1953125 C40.9396875 42.1953125 39.9496875 42.1953125 38.9296875 42.1953125 C38.91550781 42.95972656 38.90132812 43.72414062 38.88671875 44.51171875 C38.50505657 53.08364501 36.48016668 60.24258219 33.58056641 68.27832031 C32.11350909 72.5991508 31.05025843 77.04617414 29.921875 81.46484375 C28.9296875 84.1953125 28.9296875 84.1953125 25.9296875 86.1953125 C24.9396875 86.1953125 23.9496875 86.1953125 22.9296875 86.1953125 C22.9296875 86.8553125 22.9296875 87.5153125 22.9296875 88.1953125 C-0.44517175 89.06823256 -0.44517175 89.06823256 -6.84765625 83.70703125 C-10.99317027 77.8226694 -12.37201161 70.08192263 -14.0703125 63.1953125 C-14.23917969 62.52258301 -14.40804687 61.84985352 -14.58203125 61.15673828 C-16.6950569 52.68676233 -18.51316302 44.18851172 -20.06225586 35.59790039 C-20.6632223 32.28111614 -21.32033726 29.01323507 -22.1953125 25.7578125 C-23.61016428 19.99734455 -24.10922116 14.2404651 -24.3203125 8.3203125 C-24.34609375 7.60101563 -24.371875 6.88171875 -24.3984375 6.140625 C-23.95388942 3.50508995 -23.21976401 2.77579155 -21.0703125 1.1953125 C-14.69956719 -1.46214727 -6.58531196 -2.55957408 0 0 Z " fill="#5B9F4E" transform="translate(958.0703125,164.8046875)" data-index="4" style="opacity: 1;"></path>
<path d="M0 0 C1.05574219 -0.01417969 2.11148438 -0.02835938 3.19921875 -0.04296875 C6.63877368 0.21165326 9.1805087 0.72882433 12.3125 2.1875 C16.02850745 6.67168375 15.72096246 11.0308063 15.65307617 16.56762695 C15.65373329 17.97323631 15.65373329 17.97323631 15.65440369 19.40724182 C15.65231778 22.49696872 15.62899577 25.58614943 15.60546875 28.67578125 C15.5998721 30.82097578 15.59560233 32.96617416 15.59260559 35.1113739 C15.58116231 40.7519493 15.55169936 46.39229221 15.51849365 52.03277588 C15.48778176 57.7906988 15.47409785 63.54865937 15.45898438 69.30664062 C15.42682935 80.60036245 15.37563906 91.89391188 15.3125 103.1875 C14.6525 103.1875 13.9925 103.1875 13.3125 103.1875 C13.209375 103.785625 13.10625 104.38375 13 105 C12.21425967 107.50008286 11.34331147 108.56285082 9.3125 110.1875 C8.6525 110.1875 7.9925 110.1875 7.3125 110.1875 C7.3125 110.8475 7.3125 111.5075 7.3125 112.1875 C5.50436125 112.98907758 3.69069627 113.77819175 1.875 114.5625 C0.86566406 115.00335938 -0.14367187 115.44421875 -1.18359375 115.8984375 C-9.12229455 118.81902977 -16.57054388 119.54674504 -25 119.5 C-26.51424561 119.49480347 -26.51424561 119.49480347 -28.05908203 119.48950195 C-42.45231219 119.27964416 -42.45231219 119.27964416 -48.6875 116.1875 C-49.0175 115.1975 -49.3475 114.2075 -49.6875 113.1875 C-50.41710937 113.09210938 -51.14671875 112.99671875 -51.8984375 112.8984375 C-55.08911729 112.08512696 -56.77174238 110.88177683 -59.3125 108.8125 C-60.06789063 108.20664063 -60.82328125 107.60078125 -61.6015625 106.9765625 C-65.75618896 103.41323119 -67.06284852 101.80936328 -67.6875 96.1875 C-68.3475 96.1875 -69.0075 96.1875 -69.6875 96.1875 C-72.05875759 88.65302024 -72.12563528 81.29431885 -72.1875 73.4375 C-72.22875 72.14328125 -72.27 70.8490625 -72.3125 69.515625 C-72.3866119 60.32574925 -70.52962635 53.99844138 -65.6875 46.1875 C-65.0275 46.1875 -64.3675 46.1875 -63.6875 46.1875 C-63.44644531 45.28257812 -63.20539063 44.37765625 -62.95703125 43.4453125 C-60.49242292 37.12074835 -54.79111362 33.73068566 -48.875 30.7890625 C-39.09788381 27.19902765 -27.99269161 27.2513687 -17.6875 28.1875 C-17.0275 28.5175 -16.3675 28.8475 -15.6875 29.1875 C-15.6875 19.9475 -15.6875 10.7075 -15.6875 1.1875 C-5.29296875 0.03255208 -5.29296875 0.03255208 0 0 Z " fill="#5A9E4E" transform="translate(395.6875,134.8125)" data-index="5" style="opacity: 1; visibility: visible;"></path>
<path d="M0 0 C3.45803731 -0.11795981 6.91554557 -0.18782752 10.375 -0.25 C11.34050781 -0.28351563 12.30601562 -0.31703125 13.30078125 -0.3515625 C20.39349681 -0.44676674 25.62425957 0.96909743 32 4 C33.37298208 4.58806717 34.74778102 5.17192504 36.125 5.75 C37.07375 6.1625 38.0225 6.575 39 7 C39 7.66 39 8.32 39 9 C39.58265625 9.2475 40.1653125 9.495 40.765625 9.75 C43.33114236 11.18525446 44.83724798 12.77663013 46.75 15 C47.36359375 15.70125 47.9771875 16.4025 48.609375 17.125 C50 19 50 19 50 21 C50.66 21 51.32 21 52 21 C52 21.99 52 22.98 52 24 C52.66 24 53.32 24 54 24 C56.88852967 34.78040536 56.1901883 45.9442081 56 57 C55.34 57 54.68 57 54 57 C53.95875 58.27875 53.9175 59.5575 53.875 60.875 C53.23199765 66.87005135 50.27536656 71.07880249 47 76 C46.52046875 76.85722656 46.0409375 77.71445313 45.546875 78.59765625 C40.83313487 85.91823752 32.7495762 88.78275028 24.63256836 90.56347656 C19.9319978 91.34290902 15.2534054 91.28747757 10.5 91.25 C9.02853516 91.26160156 9.02853516 91.26160156 7.52734375 91.2734375 C1.61489752 91.25769197 -4.39964625 91.1026005 -10 89 C-10.495 88.01 -10.495 88.01 -11 87 C-11.99 86.835 -12.98 86.67 -14 86.5 C-14.99 86.335 -15.98 86.17 -17 86 C-17.495 85.01 -17.495 85.01 -18 84 C-19.485 83.505 -19.485 83.505 -21 83 C-24 78.66666667 -24 78.66666667 -24 76 C-24.99 75.67 -25.98 75.34 -27 75 C-34.98390079 66.28474952 -35.3906335 55.63312091 -35.5 44.375 C-35.51836914 43.32666992 -35.53673828 42.27833984 -35.55566406 41.19824219 C-35.49744233 33.77613521 -33.95559517 27.79483925 -31 21 C-30.34 21 -29.68 21 -29 21 C-28.9175 20.443125 -28.835 19.88625 -28.75 19.3125 C-27.76104459 16.26322081 -26.15242534 14.34810037 -24 12 C-23.34 12 -22.68 12 -22 12 C-22 11.34 -22 10.68 -22 10 C-18.24039194 6.24039194 -15.24099655 5.41105855 -10 5 C-10 4.34 -10 3.68 -10 3 C-6.7 2.67 -3.4 2.34 0 2 C0 1.34 0 0.68 0 0 Z " fill="#5A9E4E" transform="translate(609,163)" data-index="6" style="opacity: 1;"></path>
<path d="M0 0 C0 0.66 0 1.32 0 2 C2.97 2.33 5.94 2.66 9 3 C9 3.66 9 4.32 9 5 C9.825 5.04125 10.65 5.0825 11.5 5.125 C16.18241925 6.29560481 19.5336823 8.66640168 23 12 C23.68533667 13.32383378 24.35438449 14.6563472 25 16 C26.175625 16.804375 26.175625 16.804375 27.375 17.625 C32.18124534 21.97350769 34.67758127 29.5435771 35.14526367 36.0078125 C35.17026168 38.3388096 35.18932175 40.66884233 35.1875 43 C35.18814453 43.84344971 35.18878906 44.68689941 35.18945312 45.5559082 C35.13378866 52.18187758 34.44798234 58.5228647 33 65 C32.34 65 31.68 65 31 65 C30.938125 66.051875 30.87625 67.10375 30.8125 68.1875 C29.81651237 72.86098041 28.60548251 73.92031703 25 77 C24.33484375 77.64195312 23.6696875 78.28390625 22.984375 78.9453125 C18.05983868 83.61156894 13.43831623 86.82518415 7 89 C5.97777344 89.35835938 4.95554687 89.71671875 3.90234375 90.0859375 C-0.94568636 91.4375174 -5.81496651 91.29087962 -10.8125 91.25 C-11.74642578 91.25773437 -12.68035156 91.26546875 -13.64257812 91.2734375 C-19.97777562 91.25585194 -25.84091968 90.47167574 -32 89 C-32 88.34 -32 87.68 -32 87 C-32.66 86.773125 -33.32 86.54625 -34 86.3125 C-36.57080124 85.18777446 -38.90048176 83.98486244 -41.3125 82.5625 C-42.35857422 81.94568359 -42.35857422 81.94568359 -43.42578125 81.31640625 C-44.20501953 80.66478516 -44.20501953 80.66478516 -45 80 C-45 79.01 -45 78.02 -45 77 C-45.66 77 -46.32 77 -47 77 C-50.0900669 73.06718758 -51.52583422 69.97874064 -52 65 C-52.66 65 -53.32 65 -54 65 C-54 63.68 -54 62.36 -54 61 C-54.66 61 -55.32 61 -56 61 C-58.9960712 45.81990593 -58.08805557 33.17511314 -50 20 C-49.69707031 19.15050781 -49.39414063 18.30101562 -49.08203125 17.42578125 C-47.65431558 14.22501796 -45.6759472 12.50160964 -43.0625 10.1875 C-42.18722656 9.39730469 -41.31195313 8.60710937 -40.41015625 7.79296875 C-38 6 -38 6 -35 6 C-35 5.34 -35 4.68 -35 4 C-23.79993488 -1.39530018 -12.12687219 -0.40073548 0 0 Z " fill="#5A9E4E" transform="translate(273,163)" data-index="7" style="opacity: 1;"></path>
<path d="M0 0 C0 0.66 0 1.32 0 2 C0.77085937 2.06058594 1.54171875 2.12117187 2.3359375 2.18359375 C3.33882812 2.26738281 4.34171875 2.35117188 5.375 2.4375 C6.87160156 2.55931641 6.87160156 2.55931641 8.3984375 2.68359375 C11 3 11 3 13 4 C13 4.66 13 5.32 13 6 C14.65 6.33 16.3 6.66 18 7 C18 7.66 18 8.32 18 9 C18.556875 9.20625 19.11375 9.4125 19.6875 9.625 C21.94696811 10.96846753 22.9998656 12.05157702 24.625 14.0625 C26.67119397 17.00824713 26.67119397 17.00824713 29 18 C36.82784924 28.56257862 37.40001326 43.08562038 35.6171875 55.7109375 C34.79462356 59.64096519 33.65682345 63.3313195 32 67 C31.34 67 30.68 67 30 67 C29.67 68.98 29.34 70.96 29 73 C28.34 73 27.68 73 27 73 C26.773125 73.556875 26.54625 74.11375 26.3125 74.6875 C24.62449964 77.66159588 22.53323483 79.72008865 20 82 C19.34 82 18.68 82 18 82 C18 82.66 18 83.32 18 84 C9.738041 88.59225513 9.738041 88.59225513 5 88 C5 88.66 5 89.32 5 90 C-0.28670929 91.18249131 -5.35411126 91.18390274 -10.75 91.1875 C-11.70132813 91.19974609 -12.65265625 91.21199219 -13.6328125 91.22460938 C-28.61467928 91.25539403 -28.61467928 91.25539403 -32.57324219 87.51245117 C-33.04407227 87.01334229 -33.51490234 86.5142334 -34 86 C-34.928125 85.54625 -35.85625 85.0925 -36.8125 84.625 C-40.52966661 82.72997389 -43.01099974 80.91948862 -46 78 C-46.875 75.1875 -46.875 75.1875 -47 73 C-47.99 72.67 -48.98 72.34 -50 72 C-50 71.01 -50 70.02 -50 69 C-50.66 69 -51.32 69 -52 69 C-52.33 66.36 -52.66 63.72 -53 61 C-53.66 61 -54.32 61 -55 61 C-56.41709735 56.10695015 -56.18418862 51.24397986 -56.1875 46.1875 C-56.19974609 45.21490234 -56.21199219 44.24230469 -56.22460938 43.24023438 C-56.2358107 37.72544858 -55.81499768 33.20825421 -54 28 C-53.63068359 26.75669922 -53.63068359 26.75669922 -53.25390625 25.48828125 C-50.81578947 17.81578947 -50.81578947 17.81578947 -48 15 C-47.34 15 -46.68 15 -46 15 C-45.67 14.01 -45.34 13.02 -45 12 C-44.34 12 -43.68 12 -43 12 C-43 11.34 -43 10.68 -43 10 C-29.31757456 -0.1381827 -16.44626314 -0.87899721 0 0 Z " fill="#5A9E4E" transform="translate(885,163)" data-index="8" style="opacity: 1;"></path>
<path d="M0 0 C1.258125 0.309375 2.51625 0.61875 3.8125 0.9375 C7 2 7 2 9 5 C10.99456921 6.09285771 13.03249074 6.95129662 15.125 7.83984375 C17.44734733 9.27679616 18.07350595 10.45696684 19 13 C19 13.99 19 14.98 19 16 C19.66 16 20.32 16 21 16 C23.13676994 23.81140984 23.25999105 31.15332868 23.1953125 39.22265625 C23.19157439 40.57742604 23.1887312 41.93219857 23.18673706 43.28697205 C23.17916332 46.82314748 23.15957004 50.35915414 23.1373291 53.89526367 C23.11673443 57.51543903 23.10770645 61.13564211 23.09765625 64.75585938 C23.07631708 71.83730791 23.04225845 78.91864284 23 86 C18.56568886 88.32289256 15.07258118 88.36700714 10.125 88.375 C9.33480469 88.39949219 8.54460937 88.42398438 7.73046875 88.44921875 C2.23158362 88.47666743 -0.80626704 87.62737674 -5 84 C-5 83.34 -5 82.68 -5 82 C-5.66 82 -6.32 82 -7 82 C-7.89345994 78.91969686 -8.14412086 76.13029123 -8.18945312 72.92773438 C-8.20617065 71.91988892 -8.22288818 70.91204346 -8.2401123 69.87365723 C-8.25368774 68.79128784 -8.26726318 67.70891846 -8.28125 66.59375 C-8.29965942 65.47689819 -8.31806885 64.36004639 -8.33703613 63.20935059 C-8.41566764 58.43019122 -8.48342816 53.65089114 -8.55224609 48.87158203 C-8.60401573 45.38306824 -8.66124921 41.89467326 -8.71875 38.40625 C-8.73232544 37.32388062 -8.74590088 36.24151123 -8.7598877 35.12634277 C-8.77660522 34.11849731 -8.79332275 33.11065186 -8.81054688 32.07226562 C-8.82307495 31.18720337 -8.83560303 30.30214111 -8.84851074 29.39025879 C-8.99150038 27.13411051 -9.3717411 25.16599285 -10 23 C-12.24973447 22.945862 -14.49984383 22.90714509 -16.75 22.875 C-18.62945313 22.84019531 -18.62945313 22.84019531 -20.546875 22.8046875 C-23.81164758 22.98934658 -25.24940619 23.4264621 -28 25 C-28.99 25 -29.98 25 -31 25 C-31 45.13 -31 65.26 -31 86 C-32.32 86 -33.64 86 -35 86 C-35 86.66 -35 87.32 -35 88 C-40.94 88 -46.88 88 -53 88 C-53 87.34 -53 86.68 -53 86 C-53.598125 85.896875 -54.19625 85.79375 -54.8125 85.6875 C-57.33421352 84.89496146 -58.39685699 84.08408591 -60 82 C-60 81.01 -60 80.02 -60 79 C-60.66 79 -61.32 79 -62 79 C-62.02316034 70.83763585 -62.04093395 62.67528541 -62.05181217 54.51289654 C-62.0570329 50.72285998 -62.0641159 46.93284589 -62.07543945 43.14282227 C-62.08629704 39.48591198 -62.09228295 35.82902332 -62.09487724 32.17209816 C-62.0967263 30.77623975 -62.10033699 29.38038253 -62.10573006 27.98453331 C-62.11297844 26.03096036 -62.11340838 24.07736569 -62.11352539 22.1237793 C-62.115746 21.0112529 -62.11796661 19.8987265 -62.12025452 18.75248718 C-62 16 -62 16 -61 13 C-60.34 13 -59.68 13 -59 13 C-58.773125 12.401875 -58.54625 11.80375 -58.3125 11.1875 C-56.62841765 8.38069608 -54.86856939 7.53435107 -52 6 C-51.24847656 5.53078125 -50.49695312 5.0615625 -49.72265625 4.578125 C-35.48840719 -3.67242969 -15.56181202 -5.37035082 0 0 Z " fill="#5A9D4D" transform="translate(1196,165)" data-index="9" style="opacity: 1;"></path>
<path d="M0 0 C2.26656164 2.95616429 2.44012605 5.02011461 2.68359375 8.71484375 C2.77511719 9.82730469 2.86664062 10.93976563 2.9609375 12.0859375 C2.7049409 15.88865057 2.40904674 17.51465469 -0.25390625 20.27734375 C-3.32806496 21.13997249 -6.38761638 21.29930677 -9.56640625 21.46484375 C-11.25043771 21.57694072 -12.93406585 21.69529565 -14.6171875 21.8203125 C-15.36266846 21.8618042 -16.10814941 21.9032959 -16.8762207 21.94604492 C-19.91833599 22.29628653 -19.91833599 22.29628653 -25.25390625 24.27734375 C-25.58390625 44.40734375 -25.91390625 64.53734375 -26.25390625 85.27734375 C-29.74969198 85.9765009 -32.24797418 86.39968859 -35.6796875 86.375 C-36.47568359 86.37177734 -37.27167969 86.36855469 -38.09179688 86.36523438 C-38.90841797 86.35685547 -39.72503906 86.34847656 -40.56640625 86.33984375 C-41.40236328 86.33533203 -42.23832031 86.33082031 -43.09960938 86.32617188 C-45.15107274 86.31444923 -47.20249898 86.29651578 -49.25390625 86.27734375 C-49.25390625 85.61734375 -49.25390625 84.95734375 -49.25390625 84.27734375 C-50.03765625 84.17421875 -50.82140625 84.07109375 -51.62890625 83.96484375 C-54.25390625 83.27734375 -54.25390625 83.27734375 -56.25390625 80.27734375 C-56.25390625 79.28734375 -56.25390625 78.29734375 -56.25390625 77.27734375 C-56.91390625 77.27734375 -57.57390625 77.27734375 -58.25390625 77.27734375 C-58.27706659 69.1149796 -58.2948402 60.95262916 -58.30571842 52.79024029 C-58.31093915 49.00020373 -58.31802215 45.21018964 -58.3293457 41.42016602 C-58.34020329 37.76325573 -58.3461892 34.10636707 -58.34878349 30.44944191 C-58.35063255 29.0535835 -58.35424324 27.65772628 -58.35963631 26.26187706 C-58.36688469 24.30830411 -58.36731463 22.35470944 -58.36743164 20.40112305 C-58.36965225 19.28859665 -58.37187286 18.17607025 -58.37416077 17.02983093 C-58.25390625 14.27734375 -58.25390625 14.27734375 -57.25390625 11.27734375 C-56.59390625 11.27734375 -55.93390625 11.27734375 -55.25390625 11.27734375 C-54.92390625 10.28734375 -54.59390625 9.29734375 -54.25390625 8.27734375 C-53.59390625 8.27734375 -52.93390625 8.27734375 -52.25390625 8.27734375 C-51.92390625 7.28734375 -51.59390625 6.29734375 -51.25390625 5.27734375 C-38.50260459 -1.82355089 -12.84030804 -9.81382296 0 0 Z " fill="#599C4D" transform="translate(816.25390625,166.72265625)" data-index="10" style="opacity: 1;"></path>
<path d="M0 0 C3.25610992 5.31831286 2.4292659 10.82074314 1.41015625 16.78125 C-0.125 19.0625 -0.125 19.0625 -9.125 21.0625 C-15.395 21.7225 -21.665 22.3825 -28.125 23.0625 C-28.125 43.1925 -28.125 63.3225 -28.125 84.0625 C-31.00765149 85.02338383 -32.80162271 85.17920941 -35.79296875 85.16015625 C-36.68564453 85.15693359 -37.57832031 85.15371094 -38.49804688 85.15039062 C-39.89120117 85.13782227 -39.89120117 85.13782227 -41.3125 85.125 C-42.25287109 85.12048828 -43.19324219 85.11597656 -44.16210938 85.11132812 C-46.48313712 85.09954626 -48.80403644 85.08309558 -51.125 85.0625 C-51.125 84.4025 -51.125 83.7425 -51.125 83.0625 C-51.90875 82.98 -52.6925 82.8975 -53.5 82.8125 C-56.125 82.0625 -56.125 82.0625 -57.375 80.5 C-59.60697355 73.24608596 -59.28530004 65.51386601 -59.29296875 58.00390625 C-59.29629715 56.86018051 -59.29962555 55.71645477 -59.30305481 54.53807068 C-59.30809875 52.12849324 -59.31046392 49.71890888 -59.31030273 47.30932617 C-59.31249085 43.64034451 -59.33067836 39.97166301 -59.34960938 36.30273438 C-59.35254357 33.95312602 -59.35452819 31.60351625 -59.35546875 29.25390625 C-59.36265427 28.16614395 -59.36983978 27.07838165 -59.37724304 25.95765686 C-59.35863744 19.70102772 -58.97763482 14.06457415 -57.125 8.0625 C-56.135 7.7325 -55.145 7.4025 -54.125 7.0625 C-54.125 6.4025 -54.125 5.7425 -54.125 5.0625 C-38.40434172 -2.87208326 -16.47526015 -10.21466129 0 0 Z " fill="#5A9D4D" transform="translate(743.125,167.9375)" data-index="11" style="opacity: 1;"></path>
<path d="M0 0 C1.16660156 -0.00515625 2.33320312 -0.0103125 3.53515625 -0.015625 C7.00899427 0.25558164 9.73121054 0.90023265 12.9375 2.25 C14.1875 4.3125 14.1875 4.3125 14.9375 6.25 C15.5975 6.58 16.2575 6.91 16.9375 7.25 C16.9375 33.65 16.9375 60.05 16.9375 87.25 C8.97135403 88.84322919 -1.3494368 90.0634551 -8.9375 86.5 C-12.86162954 83.67462673 -12.86162954 83.67462673 -14.0625 80.25 C-14.24248095 77.67408682 -14.31543671 75.20965219 -14.28955078 72.63574219 C-14.28984283 71.87437958 -14.29013489 71.11301697 -14.29043579 70.32858276 C-14.28904506 67.81789664 -14.27349604 65.30750914 -14.2578125 62.796875 C-14.25408146 61.05381431 -14.25123491 59.31075152 -14.24923706 57.56768799 C-14.2416078 52.98423452 -14.22196537 48.40090819 -14.1998291 43.81750488 C-14.17935546 39.13877075 -14.17023209 34.46001604 -14.16015625 29.78125 C-14.13871882 20.60411087 -14.10459138 11.42706601 -14.0625 2.25 C-9.20175501 0.79224698 -5.0869216 -0.02253343 0 0 Z " fill="#599B4C" transform="translate(1095.0625,164.75)" data-index="12" style="opacity: 1;"></path>

<path d="M0 0 C0 0.66 0 1.32 0 2 C0.598125 2.103125 1.19625 2.20625 1.8125 2.3125 C4.33421352 3.10503854 5.39685699 3.91591409 7 6 C7 6.99 7 7.98 7 9 C7.66 9 8.32 9 9 9 C11.77468506 17.70445557 11.08639857 29.84594782 7 38 C4.68470663 41.47294006 3.93895836 41.91050088 0 43 C-5.90038837 43.85578152 -10.50045171 43.17040146 -15.40234375 39.65234375 C-20.66934181 34.20505725 -19.28743189 24.53810798 -19.203125 17.5546875 C-18.96663493 13.41611119 -18.28269976 9.92826802 -17 6 C-16.34 6 -15.68 6 -15 6 C-14.67 5.01 -14.34 4.02 -14 3 C-13.34 3 -12.68 3 -12 3 C-12 2.34 -12 1.68 -12 1 C-8.0186217 -0.3271261 -4.14954773 -0.06915913 0 0 Z " fill="#040803" transform="translate(267,187)" data-index="14" style="opacity: 1; visibility: hidden;"></path>

<path d="M0 0 C0.07402793 5.51754805 0.12854366 11.03480856 0.16479492 16.55273438 C0.17990325 18.43071526 0.20039094 20.30866076 0.22631836 22.18652344 C0.26261246 24.88225019 0.27970545 27.57751146 0.29296875 30.2734375 C0.30845261 31.11619232 0.32393646 31.95894714 0.33988953 32.82723999 C0.34057617 35.19287109 0.34057617 35.19287109 0 39 C-4.09874878 41.73249919 -7.19232863 41.4845527 -12 41 C-16.62545253 40.05572899 -20.02267891 38.95226157 -23.4375 35.625 C-26.48952086 30.49760496 -27.29437672 26.56130594 -27.3125 20.5625 C-27.32925781 19.28503906 -27.34601563 18.00757813 -27.36328125 16.69140625 C-26.97614892 12.75764221 -25.96684047 10.39279981 -24 7 C-23.566875 6.113125 -23.13375 5.22625 -22.6875 4.3125 C-17.65878746 -2.57869866 -7.54048705 -2.51349568 0 0 Z " fill="#040703" transform="translate(1296,188)" data-index="16" style="opacity: 1; visibility: hidden;"></path>

<path d="M0 0 C0 0.66 0 1.32 0 2 C0.7425 2.04125 1.485 2.0825 2.25 2.125 C5 3 5 3 7.3125 5.375 C9.61504555 10.32120896 9.34373396 14.63393098 9 20 C8.34 20 7.68 20 7 20 C6.9071875 21.36125 6.9071875 21.36125 6.8125 22.75 C5.80326419 26.78694323 4.443117 27.78656764 1 30 C-4.80641933 31.93547311 -11.83003148 32.19171749 -17.59765625 30.0234375 C-22.57609158 27.07793856 -22.57609158 27.07793856 -23.68359375 24.26171875 C-24.1141473 21.18405821 -24.24948515 18.17012704 -24.3125 15.0625 C-24.34988281 13.85722656 -24.38726563 12.65195313 -24.42578125 11.41015625 C-23.92699209 7.41526692 -22.85103893 5.78756497 -20 3 C-19.34 3 -18.68 3 -18 3 C-18 2.34 -18 1.68 -18 1 C-11.61767125 -1.00925164 -6.59390542 -0.99989549 0 0 Z " fill="#58994B" transform="translate(1104,127)" data-index="18"></path>

<path d="M0 0 C0.66 0 1.32 0 2 0 C2.33 19.14 2.66 38.28 3 58 C2.67 58 2.34 58 2 58 C0.96155847 52.05321546 0.87027116 46.28195714 0.90234375 40.25390625 C0.9037587 39.24279282 0.90517365 38.23167938 0.90663147 37.18992615 C0.91220039 33.98075319 0.92474713 30.77165164 0.9375 27.5625 C0.94251902 25.37825622 0.94708122 23.19401134 0.95117188 21.00976562 C0.96215963 15.67315298 0.97886664 10.3365816 1 5 C0.34 5 -0.32 5 -1 5 C-1.02578125 5.67804688 -1.0515625 6.35609375 -1.078125 7.0546875 C-1.602243 15.65498744 -4.13243112 22.38626575 -8 30 C-9.57156655 26.8568669 -8.11705576 24.634536 -7.0625 21.375 C-6.68222656 20.18648437 -6.30195313 18.99796875 -5.91015625 17.7734375 C-5.60980469 16.85820312 -5.30945313 15.94296875 -5 15 C-4.34 15 -3.68 15 -3 15 C-2.95101562 14.16855469 -2.90203125 13.33710938 -2.8515625 12.48046875 C-2.73941406 10.85044922 -2.73941406 10.85044922 -2.625 9.1875 C-2.55539063 8.10855469 -2.48578125 7.02960938 -2.4140625 5.91796875 C-2 3 -2 3 0 0 Z " fill="#24401F" transform="translate(165,183)" data-index="20" style="opacity: 1; visibility: hidden;"></path>

<path d="M0 0 C1.27964684 3.79119252 0.92801328 7.23604299 0.625 11.1875 C0.53476563 12.43917969 0.44453125 13.69085938 0.3515625 14.98046875 C0 18 0 18 -1 19 C-1.21430443 20.4612511 -1.37047386 21.93115235 -1.5 23.40234375 C-1.5825 24.29244141 -1.665 25.18253906 -1.75 26.09960938 C-1.8325 27.03611328 -1.915 27.97261719 -2 28.9375 C-2.16300982 30.78027505 -2.32950937 32.62274575 -2.5 34.46484375 C-2.60828125 35.69642212 -2.60828125 35.69642212 -2.71875 36.95288086 C-3 39 -3 39 -4 41 C-4.99 41 -5.98 41 -7 41 C-7 38.69 -7 36.38 -7 34 C-7.66 34 -8.32 34 -9 34 C-9 31.36 -9 28.72 -9 26 C-8.67 26 -8.34 26 -8 26 C-8 27.65 -8 29.3 -8 31 C-7.34 31 -6.68 31 -6 31 C-6 31.66 -6 32.32 -6 33 C-5.34 33 -4.68 33 -4 33 C-4.01160156 32.40574219 -4.02320313 31.81148437 -4.03515625 31.19921875 C-4.1050901 24.77529529 -3.93580546 18.36578774 -3 12 C-2.67 11.67 -2.34 11.34 -2 11 C-1.79231771 9.52603261 -1.63283983 8.0450874 -1.5 6.5625 C-1.10958904 2.21917808 -1.10958904 2.21917808 0 0 Z " fill="#335A2C" transform="translate(1033,182)" data-index="22" style="opacity: 1; visibility: hidden;"></path>

<path d="M0 0 C1.62786042 3.25572084 0.31082856 6.55882512 -0.375 10 C-0.58382813 11.10601562 -0.58382813 11.10601562 -0.796875 12.234375 C-1.85667783 17.71335565 -1.85667783 17.71335565 -3 20 C-3.07181821 22.71760108 -3.09299506 25.40859388 -3.0625 28.125 C-3.05798828 28.87910156 -3.05347656 29.63320312 -3.04882812 30.41015625 C-3.03703499 32.27347127 -3.01909942 34.13674555 -3 36 C-3.66 35.67 -4.32 35.34 -5 35 C-5 27.41 -5 19.82 -5 12 C-4.34 12 -3.68 12 -3 12 C-2.95101563 11.38511719 -2.90203125 10.77023438 -2.8515625 10.13671875 C-2.77679687 9.32847656 -2.70203125 8.52023438 -2.625 7.6875 C-2.52058594 6.48673828 -2.52058594 6.48673828 -2.4140625 5.26171875 C-2 3 -2 3 0 0 Z " fill="#31582B" transform="translate(1242,184)" data-index="24" style="opacity: 1; visibility: hidden;"></path>

<path d="M0 0 C1.66285211 3.32570422 -0.01920148 6.68360945 -0.9375 10.125 C-1.13279297 10.87910156 -1.32808594 11.63320312 -1.52929688 12.41015625 C-2.01323358 14.27508306 -2.50580769 16.13776459 -3 18 C-3.99 17.34 -4.98 16.68 -6 16 C-6.6875 12.375 -6.6875 12.375 -7 9 C-6.34 9 -5.68 9 -5 9 C-4.67 9.66 -4.34 10.32 -4 11 C-3.71125 10.113125 -3.4225 9.22625 -3.125 8.3125 C-2.16851252 5.49617576 -1.13201054 2.74916844 0 0 Z " fill="#1F371B" transform="translate(499,180)" data-index="26" style="opacity: 1; visibility: hidden;"></path>

<path d="M0 0 C1.54642491 3.97510505 0.42309383 6.95493144 -0.75 10.9375 C-1.09546875 12.14277344 -1.4409375 13.34804687 -1.796875 14.58984375 C-2.90063506 17.71835846 -4.17853725 20.24163543 -6 23 C-7.57156655 19.8568669 -6.11705576 17.634536 -5.0625 14.375 C-4.68222656 13.18648437 -4.30195313 11.99796875 -3.91015625 10.7734375 C-3.60980469 9.85820312 -3.30945313 8.94296875 -3 8 C-2.34 8 -1.68 8 -1 8 C-0.67 5.36 -0.34 2.72 0 0 Z " fill="#213A1C" transform="translate(163,190)" data-index="28" style="opacity: 1; visibility: hidden;"></path>

<path d="M0 0 C1.77669223 3.06156654 2.24050818 5.24036215 2.1953125 8.765625 C2.18886719 9.65507812 2.18242188 10.54453125 2.17578125 11.4609375 C2.15902344 12.38132813 2.14226563 13.30171875 2.125 14.25 C2.11597656 15.18585938 2.10695313 16.12171875 2.09765625 17.0859375 C2.07413636 19.39088657 2.04126853 21.6953116 2 24 C1.67 24 1.34 24 1 24 C0.67 18.39 0.34 12.78 0 7 C-0.66 7.66 -1.32 8.32 -2 9 C-1.125 1.125 -1.125 1.125 0 0 Z " fill="#2C4F26" transform="translate(522,184)" data-index="30" style="opacity: 1; visibility: hidden;"></path>

<path d="M0 0 C0.66 0 1.32 0 2 0 C2 1.65 2 3.3 2 5 C2.66 5 3.32 5 4 5 C4.66 8.3 5.32 11.6 6 15 C2.87222635 13.43611317 2.32878244 11.17752323 1 8 C0.49033486 5.32185392 0.23475054 2.72310621 0 0 Z " fill="#2E5127" transform="translate(475,211)" data-index="32" style="opacity: 1; visibility: hidden;"></path>

<path d="M0 0 C0.33 0 0.66 0 1 0 C0.64989059 10.15317287 0.64989059 10.15317287 -2.0625 13.6875 C-2.701875 14.120625 -3.34125 14.55375 -4 15 C-3.67 12.69 -3.34 10.38 -3 8 C-2.34 8 -1.68 8 -1 8 C-0.67 5.36 -0.34 2.72 0 0 Z " fill="#345D2D" transform="translate(145,170)" data-index="34" style="opacity: 1; visibility: hidden;"></path>

<path d="M0 0 C0.33 0 0.66 0 1 0 C1 4.62 1 9.24 1 14 C0.34 14 -0.32 14 -1 14 C-1.33 14.99 -1.66 15.98 -2 17 C-3.24546405 14.50907189 -2.7767578 13.58919267 -2 11 C-1.34 11 -0.68 11 0 11 C0 7.37 0 3.74 0 0 Z " fill="#1C3218" transform="translate(1113,136)" data-index="36" style="opacity: 1; visibility: hidden;"></path>

<path d="M0 0 C0.66 0.33 1.32 0.66 2 1 C-2.43076923 6.78461538 -2.43076923 6.78461538 -5.3125 7.875 C-5.869375 7.91625 -6.42625 7.9575 -7 8 C-6.67 7.34 -6.34 6.68 -6 6 C-5.34 6 -4.68 6 -4 6 C-3.71125 5.38125 -3.4225 4.7625 -3.125 4.125 C-2 2 -2 2 0 0 Z " fill="#43763A" transform="translate(1252,172)" data-index="38" style="opacity: 1; visibility: hidden;"></path>

</svg>