<svg version="1.1" xmlns="http://www.w3.org/2000/svg" width="2202" height="734">

<path d="M0 0 C4.56561283 4.44546513 7.0490579 7.56527374 7.8125 14 C7.76387526 19.27092176 4.92431649 22.641074 1.375 26.3125 C-3.0280467 30.01757164 -7.5010686 30.687072 -13.03515625 31.8046875 C-14.61623924 32.13314163 -14.61623924 32.13314163 -16.22926331 32.4682312 C-23.26486494 33.85398539 -30.24604104 34.74336955 -37.38652039 35.37120056 C-65.36732608 36.62139792 -65.36732608 36.62139792 -88.69335938 49.41943359 C-95.32121169 59.2581272 -97.75989149 71.29586362 -100.27734375 82.71582031 C-101.98817811 90.24304261 -104.87355311 97.18215946 -107.87741089 104.26916504 C-109.48487957 108.10409081 -110.98821412 111.97966897 -112.50390625 115.8515625 C-113.16131411 117.51997777 -113.81903929 119.18826802 -114.47705078 120.85644531 C-116.89429276 126.99361929 -119.30476911 133.13344606 -121.71484375 139.2734375 C-122.16201752 140.41266159 -122.60919128 141.55188568 -123.06991577 142.72563171 C-123.99408013 145.08009826 -124.91824394 147.43456502 -125.84240723 149.78903198 C-135.8584516 175.30579754 -145.93649909 200.7974717 -156.04367065 226.27825928 C-159.8720943 235.93170267 -163.68860816 245.58982131 -167.5 255.25 C-167.79904236 256.00779755 -168.09808472 256.76559509 -168.40618896 257.5463562 C-171.41804553 265.17876062 -174.4279508 272.81193199 -177.43574524 280.44593811 C-186.09772049 302.42881185 -194.82683803 324.38376336 -203.625 346.3125 C-198.91631893 352.04418637 -193.77944476 357.21484824 -188.46980286 362.39003563 C-185.86480785 364.93321453 -183.27578155 367.49260841 -180.68359375 370.04882812 C-177.40670004 373.27799218 -174.12550728 376.50242812 -170.82861328 379.71118164 C-168.14342033 382.32542166 -165.47373382 384.95467981 -162.81318665 387.59398842 C-161.80767253 388.58607567 -160.79681808 389.57278516 -159.78019714 390.55348778 C-149.42721798 400.55052155 -142.78314409 411.52901041 -142.3125 426.0625 C-142.5918522 439.12632351 -146.91340773 450.70924427 -156 460.1875 C-160.66669946 464.58617956 -165.50585143 468.27278381 -171.625 470.3125 C-170.98433594 470.725 -170.34367187 471.1375 -169.68359375 471.5625 C-162.26349681 476.51660347 -154.85258004 482.06337087 -152.0625 490.921875 C-150.38035109 500.11361726 -150.77023513 509.19379717 -155.625 517.3125 C-161.10565382 525.19251839 -167.61355435 529.30868478 -176.625 532.3125 C-187.80653125 533.48871967 -195.72655911 531.41024493 -204.75 524.7421875 C-210.64176996 519.48530655 -214.06887469 512.64442344 -215.0703125 504.84375 C-215.52900369 490.77722014 -211.35841745 485.12740828 -201.625 474.3125 C-287.755 474.3125 -373.885 474.3125 -462.625 474.3125 C-460.315 476.2925 -458.005 478.2725 -455.625 480.3125 C-450.13357464 487.03541205 -447.86802827 494.64758958 -448.625 503.3125 C-449.8657232 513.27323555 -454.5569641 520.29470108 -462.25 526.65625 C-468.99346476 531.83426758 -475.80270681 532.8818397 -484.19921875 532.765625 C-491.97290222 531.73740689 -498.8329798 527.4609624 -504.625 522.3125 C-510.17890424 514.94072643 -513.24520547 507.10275096 -513.00390625 497.8046875 C-511.75943336 489.61939156 -507.73925075 481.89217145 -501.625 476.3125 C-500.635 475.6525 -499.645 474.9925 -498.625 474.3125 C-499.67365234 474.3031543 -500.72230469 474.29380859 -501.80273438 474.28417969 C-505.72437728 474.24405622 -509.64525398 474.17823774 -513.56640625 474.10498047 C-515.25771174 474.07689963 -516.94914532 474.05562146 -518.640625 474.04150391 C-521.08399425 474.01989392 -523.52584425 473.97315666 -525.96875 473.921875 C-526.71491577 473.92064636 -527.46108154 473.91941772 -528.2298584 473.91815186 C-533.73564054 473.767395 -538.00900837 472.35541335 -542.625 469.3125 C-547.15907051 464.42965484 -547.92410405 461.34896823 -547.83984375 454.8515625 C-547.43869795 450.11074846 -545.66345742 447.322891 -542.3125 444.0625 C-537.5290205 440.94767614 -533.10284559 440.06266021 -527.45021725 440.05916691 C-526.22564939 440.05355151 -525.00108154 440.04793612 -523.73940557 440.04215056 C-522.38884617 440.04599971 -521.03828727 440.05002741 -519.68772888 440.05421448 C-518.24655673 440.05135885 -516.80538611 440.04762031 -515.36421829 440.04307598 C-511.40825086 440.03310039 -507.45237217 440.03546698 -503.49639809 440.03980291 C-499.22846375 440.0422798 -494.9605527 440.0332101 -490.69262695 440.02542114 C-483.29843687 440.01337804 -475.90426833 440.00826832 -468.51006889 440.00753975 C-457.8138512 440.0062143 -447.11768584 439.99110477 -436.42148662 439.97204458 C-419.06037581 439.94120449 -401.69926367 439.91703734 -384.33813477 439.89916992 C-383.29911477 439.89809724 -382.26009478 439.89702456 -381.18958933 439.89591938 C-369.59363852 439.88409555 -357.99768718 439.87389033 -346.4017334 439.86547852 C-342.19498697 439.86240451 -337.98824054 439.85931574 -333.78149414 439.85620117 C-332.74343604 439.85543583 -331.70537794 439.85467049 -330.63586354 439.85388196 C-313.33852762 439.84080888 -296.04122964 439.81618247 -278.74392182 439.78245777 C-268.07197818 439.76214932 -257.40011563 439.75188092 -246.72815252 439.75444698 C-239.41946301 439.75548061 -232.11083768 439.74586836 -224.80217057 439.72780795 C-220.58283452 439.71774558 -216.36364047 439.71265345 -212.14429665 439.72057533 C-208.28357132 439.72773791 -204.42312298 439.72120856 -200.56243301 439.70368993 C-199.16415248 439.69979791 -197.7658468 439.70099952 -196.36757713 439.70774681 C-194.4697098 439.71618022 -192.57178471 439.70444571 -190.67394161 439.69167423 C-189.61891349 439.69085978 -188.56388536 439.69004532 -187.47688669 439.68920618 C-183.41400743 439.15253979 -180.82121422 437.38496792 -177.8125 434.6875 C-175.95728757 430.97707514 -176.05864608 427.37863068 -176.625 423.3125 C-177.99497157 420.44103006 -177.99497157 420.44103006 -179.625 418.3125 C-179.625 417.6525 -179.625 416.9925 -179.625 416.3125 C-180.47914993 415.95418091 -180.47914993 415.95418091 -181.35055542 415.58862305 C-184.10796709 414.04152156 -185.85631337 412.20528725 -188.01611328 409.89453125 C-188.8786673 408.98018311 -189.74122131 408.06583496 -190.62991333 407.1237793 C-191.08757206 406.63517426 -191.54523079 406.14656921 -192.01675797 405.64315796 C-194.47144098 403.03450952 -196.96307417 400.46143009 -199.44921875 397.8828125 C-202.60061595 394.61205213 -205.73988958 391.33241375 -208.83349609 388.00683594 C-221.57858507 372.99977176 -221.57858507 372.99977176 -238.921875 365.9609375 C-241.11030428 365.9478194 -243.2555943 366.03265982 -245.43780518 366.19616699 C-248.45580709 366.35668915 -251.3859625 366.09313599 -254.39129829 365.81864548 C-256.73796487 365.61418292 -259.08340155 365.4441459 -261.43386841 365.29022217 C-276.50832593 364.29093282 -291.56898054 363.17959348 -306.62062073 361.88165283 C-328.46736887 360.00526159 -350.32806425 358.32549872 -372.19217145 356.66678321 C-379.04661893 356.14663407 -385.90081257 355.62324165 -392.75485229 355.0977478 C-394.22809123 354.98481461 -394.22809123 354.98481461 -395.73109257 354.86959994 C-399.73574054 354.56255456 -403.74038004 354.2553996 -407.74499726 353.94795346 C-419.03212368 353.08148539 -430.31963565 352.22088185 -441.60839844 351.37597656 C-450.71878437 350.69406829 -459.82818196 350.00033152 -468.93660212 349.29263401 C-473.71759861 348.92160804 -478.49887338 348.55646029 -483.28141785 348.2059021 C-487.74173402 347.87885364 -492.20056825 347.53612987 -496.65876389 347.18137741 C-498.28690387 347.05460352 -499.91550054 346.93353948 -501.54452896 346.81874466 C-519.3826757 345.5548243 -519.3826757 345.5548243 -526 338.9375 C-529.11619203 333.90365133 -529.98709289 328.69644475 -530.73867798 322.88723755 C-530.88212381 321.79770603 -530.88212381 321.79770603 -531.02846754 320.68616378 C-531.34582456 318.26430201 -531.65460188 315.84142648 -531.96337891 313.41845703 C-532.18977011 311.67681457 -532.41667641 309.935239 -532.64405823 308.19372559 C-533.2590265 303.47126637 -533.86641015 298.74786023 -534.472157 294.02421045 C-535.10771238 289.07603303 -535.74930283 284.12863765 -536.38998413 279.18112183 C-537.46510088 270.87113091 -538.53526861 262.56051375 -539.60253906 254.24951172 C-540.8353427 244.64997933 -542.07606828 235.05149608 -543.32103598 225.45353425 C-544.51960956 216.21172015 -545.712431 206.96917223 -546.90269089 197.72628403 C-547.40876913 193.79721548 -547.91687261 189.86841675 -548.4266243 185.93982315 C-549.02717375 181.3094895 -549.62267912 176.67853392 -550.21435356 172.04705811 C-550.43189793 170.35055067 -550.65115564 168.65426189 -550.87228203 166.95821762 C-551.1746717 164.63663187 -551.47074253 162.31432171 -551.76528931 159.99172974 C-551.93230158 158.69426378 -552.09931385 157.39679783 -552.2713871 156.06001472 C-552.98606181 148.48604335 -553.00477017 142.75333848 -548.625 136.3125 C-544.28220602 131.85233321 -539.5992352 130.46483259 -533.52661133 130.15380859 C-529.9115415 130.11589093 -526.30241374 130.13821434 -522.6875 130.1875 C-521.43130859 130.19652344 -520.17511719 130.20554688 -518.88085938 130.21484375 C-515.79537478 130.23830751 -512.71028795 130.27113799 -509.625 130.3125 C-509.46644531 131.36308594 -509.30789063 132.41367188 -509.14453125 133.49609375 C-507.24075709 145.27955728 -504.35622081 154.60361109 -494.625 162.3125 C-487.85430815 166.48395622 -482.10263139 167.47805575 -474.1875 167.4375 C-473.43662109 167.44136719 -472.68574219 167.44523438 -471.91210938 167.44921875 C-468.01635683 167.44236606 -464.4295066 167.26551756 -460.625 166.3125 C-460.53863281 167.24449219 -460.45226562 168.17648437 -460.36328125 169.13671875 C-458.54042221 185.67623789 -452.85138294 201.47904819 -439.625 212.3125 C-425.00083927 223.16140185 -409.06187963 226.36763228 -391.3046875 223.83984375 C-380.62289847 221.5110464 -371.64537099 216.63544743 -363.625 209.3125 C-362.965 209.3125 -362.305 209.3125 -361.625 209.3125 C-361.36460937 208.73628906 -361.10421875 208.16007813 -360.8359375 207.56640625 C-359.54128109 205.1566748 -358.02697492 203.32572397 -356.25 201.25 C-352.33391523 196.31622168 -350.46253581 191.27795985 -348.625 185.3125 C-348.27695312 184.34441406 -347.92890625 183.37632812 -347.5703125 182.37890625 C-343.45344201 169.02459496 -345.78663256 154.17860607 -351.875 141.8125 C-354.52104378 136.87585115 -357.44135579 132.68641019 -361.33984375 128.66796875 C-362.625 127.3125 -362.625 127.3125 -362.625 126.3125 C-344.5985919 125.80300412 -326.57204645 125.29865614 -308.5453434 124.79970646 C-300.16655766 124.56768745 -291.78781724 124.33423867 -283.40917969 124.09692383 C-238.81690689 122.83487895 -194.23216585 121.8542151 -149.625 121.3125 C-149.31723633 120.219375 -149.00947266 119.12625 -148.69238281 118 C-147.73232717 114.68328445 -146.63044992 111.52645179 -145.375 108.3125 C-144.71757813 106.62640625 -144.71757813 106.62640625 -144.046875 104.90625 C-142.32810637 100.56210951 -140.5943203 96.22416647 -138.85205078 91.8894043 C-137.28334263 87.9806315 -135.75146441 84.06004599 -134.25 80.125 C-131.76111947 73.61376739 -129.16579098 67.14705733 -126.56689453 60.67919922 C-124.71031269 56.05131229 -122.88831923 51.41445593 -121.125 46.75 C-120.29416047 44.60319987 -119.4605176 42.45748379 -118.625 40.3125 C-118.33657227 39.55485352 -118.04814453 38.79720703 -117.75097656 38.01660156 C-116.77108398 35.46092233 -115.76276719 32.91781055 -114.75 30.375 C-114.44642578 29.56925537 -114.14285156 28.76351074 -113.83007812 27.93334961 C-111.54797692 22.30632327 -109.12506931 18.17187171 -103.625 15.3125 C-98.06107766 13.46582944 -92.37787675 12.40145898 -86.625 11.3125 C-85.55437317 11.10508179 -84.48374634 10.89766357 -83.38067627 10.68395996 C-75.15920249 9.09398297 -66.92680844 7.56571022 -58.69042969 6.05523682 C-54.03067052 5.19970753 -49.37217897 4.33729318 -44.71348572 3.47598267 C-42.2483508 3.02062674 -39.78300096 2.56643213 -37.31739807 2.11361694 C-31.43846452 1.03159883 -25.57086974 -0.08164905 -19.71928406 -1.30371094 C-13.11548366 -2.51389365 -6.12968649 -2.85347474 0 0 Z " fill="#69B456" transform="translate(642.625,101.6875)" data-index="1" style="visibility: visible; opacity: 1;"></path>
<path d="M0 0 C6.99377808 6.15504086 12.31343783 14.25548346 17.828125 21.72265625 C21.00307803 26.01985879 24.24500954 30.26326085 27.5 34.5 C32.33651329 40.80455948 37.12494883 47.14298606 41.87597656 53.51220703 C45.13434805 57.87322553 48.46166435 62.16938604 51.890625 66.3984375 C53 68 53 68 53 70 C53.99 70 54.98 70 56 70 C56.27223389 69.42145264 56.54446777 68.84290527 56.82495117 68.24682617 C57.99602471 66.0076012 59.29902019 64.08084434 60.80078125 62.05078125 C61.35926758 61.29361816 61.91775391 60.53645508 62.49316406 59.75634766 C63.09354492 58.94987793 63.69392578 58.1434082 64.3125 57.3125 C64.93479492 56.47251465 65.55708984 55.6325293 66.19824219 54.76708984 C71.89881351 47.09280023 77.69041692 39.48965793 83.52441406 31.91650391 C84.9018774 30.1274425 86.27588885 28.33580198 87.6484375 26.54296875 C89.6695298 23.90405813 91.69945418 21.2720912 93.73339844 18.64306641 C95.11247819 16.85409055 96.48164602 15.05771887 97.8515625 13.26171875 C98.81735535 12.0075406 99.78349355 10.75362831 100.75 9.5 C101.18586426 8.92419189 101.62172852 8.34838379 102.07080078 7.75512695 C105.62870565 3.16786991 109.35670217 -1.11890072 115 -3 C118.57800593 -3.30684159 122.16038938 -3.32371985 125.75 -3.375 C126.72710938 -3.41238281 127.70421875 -3.44976562 128.7109375 -3.48828125 C134.34257161 -3.55658948 138.10706527 -3.06481049 142.66894531 0.33349609 C145.88386397 4.35863086 146.25156096 9.18600292 146.26742554 14.16572571 C146.28022049 15.98866653 146.28022049 15.98866653 146.29327393 17.84843445 C146.29257501 19.18191541 146.29165201 20.51539628 146.29052734 21.84887695 C146.29651666 23.26371616 146.30332313 24.6785521 146.31088257 26.09338379 C146.32850947 29.92617276 146.33323656 33.75887235 146.33451414 37.59169793 C146.33593825 39.98954392 146.34021278 42.38736737 146.34550858 44.78520775 C146.36399836 53.15979829 146.37218056 61.53432527 146.37060547 69.90893555 C146.36940456 77.70019612 146.39049954 85.49117946 146.4220928 93.28236991 C146.44829425 99.98407547 146.45897114 106.6856907 146.45769465 113.38744706 C146.45718612 117.38453471 146.46280834 121.38137588 146.48405075 125.37841225 C146.50349851 129.14028959 146.50351354 132.90168699 146.48901749 136.66358185 C146.48594913 138.69073833 146.5025602 140.71789519 146.51989746 142.74497986 C146.47112028 149.86041698 146.01788776 155.93506846 142 162 C135.20313984 167.43748813 126.2535434 166.48601307 118 166 C113.05769165 164.99828028 109.09925217 163.09101287 106 159 C104.74125995 154.95345283 104.86713341 150.94158656 104.88647461 146.74316406 C104.88632858 145.91352646 104.88618256 145.08388885 104.8860321 144.22911072 C104.88672788 141.4912554 104.89450461 138.75346841 104.90234375 136.015625 C104.90420912 134.11562131 104.90563246 132.21561714 104.90663147 130.31561279 C104.91044727 125.31791859 104.92026959 120.32025351 104.93133545 115.3225708 C104.94156969 110.22156162 104.94613341 105.12054774 104.95117188 100.01953125 C104.96189268 90.01300805 104.97895788 80.00650645 105 70 C104.34 70 103.68 70 103 70 C102.71874268 70.5882959 102.43748535 71.1765918 102.14770508 71.78271484 C101.09444515 73.81753864 99.96129994 75.61125615 98.63671875 77.4765625 C97.93409912 78.46958374 97.93409912 78.46958374 97.21728516 79.48266602 C96.4600415 80.54312134 96.4600415 80.54312134 95.6875 81.625 C95.1620459 82.36484131 94.6365918 83.10468262 94.09521484 83.86694336 C88.60412862 91.58478097 83.09100386 99.28904379 77.50390625 106.93774414 C76.47204504 108.35270057 75.44903913 109.77414467 74.43359375 111.20092773 C69.53107468 117.97507916 64.47419593 121.68563602 56.0625 123.125 C50.24422383 123.42314148 45.59869495 121.48645245 41 118 C35.92978443 112.80485724 31.63185854 106.98794182 27.375 101.125 C26.78178955 100.31361572 26.1885791 99.50223145 25.57739258 98.66625977 C23.71388005 96.11399892 21.85645109 93.55740055 20 91 C19.37561035 90.14229004 18.7512207 89.28458008 18.10791016 88.40087891 C16.29859299 85.91489886 14.49218576 83.42684379 12.6875 80.9375 C12.13046387 80.17002441 11.57342773 79.40254883 10.99951172 78.61181641 C10.48791504 77.90331543 9.97631836 77.19481445 9.44921875 76.46484375 C8.77379028 75.53079712 8.77379028 75.53079712 8.0847168 74.57788086 C7 73 7 73 6 71 C5.99413376 72.01175797 5.98826752 73.02351593 5.98222351 74.06593323 C5.92493652 83.61468524 5.85214363 93.16321083 5.76428509 102.71173191 C5.71961445 107.62038586 5.68035099 112.52895744 5.65356445 117.43774414 C5.62749855 122.17764583 5.5870728 126.91723001 5.53681374 131.65693474 C5.52016726 133.4625242 5.50863918 135.26816856 5.50238609 137.07382393 C5.49272079 139.60887834 5.46463312 142.1431245 5.43237305 144.67797852 C5.43380814 145.41957214 5.43524323 146.16116577 5.4367218 146.92523193 C5.33552697 152.57153756 4.18604679 157.26897236 0.60546875 161.7421875 C-6.1929704 167.17344742 -14.6664466 166.51897578 -23 166 C-27.06995993 165.40410543 -30.46980676 164.50603195 -33.46218777 161.56089973 C-38.04092738 155.01036692 -37.70101415 148.33304582 -37.63110352 140.60107422 C-37.63624857 139.15151089 -37.64353426 137.70195382 -37.65278625 136.25241089 C-37.67123107 132.33501355 -37.65840748 128.41830067 -37.63869596 124.50093222 C-37.62225677 120.39312091 -37.63112937 116.28535116 -37.63621521 112.17752075 C-37.64072929 105.28278726 -37.62490656 98.38832569 -37.59692383 91.49365234 C-37.56484946 83.52957124 -37.56489966 75.56597972 -37.5821386 67.60186374 C-37.59801506 59.92807765 -37.59126461 52.25447057 -37.57420158 44.58069229 C-37.5673404 41.32003115 -37.56835382 38.0595139 -37.57574654 34.79885483 C-37.5834214 30.95892394 -37.57124484 27.11954886 -37.54389763 23.27971268 C-37.53702616 21.87286783 -37.5369026 20.46597095 -37.54411316 19.05912781 C-37.60374265 5.90717946 -37.60374265 5.90717946 -33 1 C-25.68034961 -5.63343317 -8.07452728 -5.14553209 0 0 Z " fill="#6AB457" transform="translate(1170,286)" data-index="2" style="visibility: visible; opacity: 1;"></path>
<path d="M0 0 C5.24648806 3.87958696 8.56465919 6.52262712 9.74609375 13.07421875 C9.015546 21.65815482 3.29641069 29.64380908 -2.94140625 35.26171875 C-6.79654719 38.02190842 -9.45997227 39.33657382 -14.265625 39.09375 C-18.29532074 38.18160846 -21.31242103 36.56345937 -24.75390625 34.38671875 C-35.75103977 27.86047037 -46.18427617 25.64030893 -58.94140625 27.26171875 C-63.28790598 28.41487174 -67.02488086 30.06915875 -70.94140625 32.26171875 C-71.76253906 32.71933594 -72.58367188 33.17695313 -73.4296875 33.6484375 C-82.61302174 39.28191145 -89.44658727 47.68934613 -92.4855957 58.1315918 C-94.75531289 68.738599 -94.0806008 81.70220507 -88.94140625 91.26171875 C-88.46703125 92.18082031 -87.99265625 93.09992188 -87.50390625 94.046875 C-83.27482723 101.43759723 -77.93207876 106.47003526 -70.94140625 111.26171875 C-70.16796875 111.81214844 -69.39453125 112.36257813 -68.59765625 112.9296875 C-56.7282763 119.8085327 -39.62078859 116.79759522 -26.94140625 114.26171875 C-26.94140625 106.01171875 -26.94140625 97.76171875 -26.94140625 89.26171875 C-33.86649647 89.34038324 -33.86649647 89.34038324 -40.79125977 89.44189453 C-46.23849534 89.47296146 -50.83141913 89.21493051 -55.94140625 87.26171875 C-60.41477288 82.78835212 -60.14728289 77.39852655 -60.19140625 71.38671875 C-60.21203125 70.69191406 -60.23265625 69.99710937 -60.25390625 69.28125 C-60.28988961 64.50445952 -59.74175103 61.16626452 -56.94140625 57.26171875 C-50.80186098 53.76966723 -45.11389294 53.80916758 -38.1640625 53.828125 C-37.03874619 53.82288315 -35.91342987 53.8176413 -34.75401306 53.8122406 C-32.38134585 53.80583579 -30.00864683 53.80713734 -27.63598633 53.81567383 C-24.01911519 53.82418297 -20.40382473 53.79539961 -16.78710938 53.76367188 C-14.47526089 53.76205959 -12.16340962 53.76263792 -9.8515625 53.765625 C-8.77737564 53.75439102 -7.70318878 53.74315704 -6.59645081 53.73158264 C-0.20825938 53.79045721 4.75574742 54.51837236 10.05859375 58.26171875 C14.33849531 62.76110244 15.17802242 66.13812609 15.26733398 72.22680664 C15.2866246 73.4556105 15.30591522 74.68441437 15.32579041 75.95045471 C15.34060388 77.29508401 15.35437632 78.63972513 15.3671875 79.984375 C15.37375933 80.66419371 15.38033115 81.34401241 15.38710213 82.04443169 C15.41968112 85.64800816 15.44412702 89.25155541 15.46362305 92.85522461 C15.48137688 95.82246594 15.51609978 98.78874621 15.56616211 101.75561523 C15.62675136 105.35130822 15.65715144 108.94611638 15.66679573 112.54229546 C15.67939123 114.5618701 15.72135494 116.5811939 15.76402283 118.60035706 C15.74295248 128.09979633 13.71199181 134.37906948 7.11351013 141.30262756 C-1.77153828 149.715958 -12.33888809 153.97731361 -23.94140625 157.26171875 C-24.5753833 157.44935791 -25.20936035 157.63699707 -25.86254883 157.83032227 C-33.28869338 159.78337289 -40.87696376 159.70262099 -48.50390625 159.69921875 C-49.57496613 159.7003215 -49.57496613 159.7003215 -50.66766357 159.70144653 C-61.55621449 159.67194199 -70.94017732 158.91017727 -80.94140625 154.26171875 C-81.54533203 153.99939453 -82.14925781 153.73707031 -82.77148438 153.46679688 C-91.10149054 149.8446774 -98.10642508 145.23463022 -104.94140625 139.26171875 C-105.56402344 138.77058594 -106.18664062 138.27945313 -106.828125 137.7734375 C-118.66705758 128.32889578 -127.84929374 113.74852776 -131.94140625 99.26171875 C-132.121875 98.64796387 -132.30234375 98.03420898 -132.48828125 97.40185547 C-139.08889115 74.34989438 -137.82402277 50.19907718 -126.203125 29.05078125 C-117.87534931 14.71315781 -106.36241771 3.47060219 -91.94140625 -4.73828125 C-91.03003906 -5.27324219 -90.11867188 -5.80820312 -89.1796875 -6.359375 C-80.80843166 -10.93901155 -72.20935804 -12.87321355 -62.94140625 -14.73828125 C-62.10996094 -14.93164062 -61.27851562 -15.125 -60.421875 -15.32421875 C-39.52783327 -18.81204304 -17.12651954 -11.81223609 0 0 Z " fill="#6AB457" transform="translate(634.94140625,294.73828125)" data-index="3" style="visibility: visible; opacity: 1;"></path>
<path d="M0 0 C0.86818359 -0.01998047 1.73636719 -0.03996094 2.63085938 -0.06054688 C8.62473941 -0.05601635 12.16309103 0.94707139 17.0625 4.4375 C19.22671269 7.32311692 20.40686698 9.89708171 21.0625 13.4375 C21.743125 12.4165625 21.743125 12.4165625 22.4375 11.375 C27.68720253 5.50033289 34.0584343 0.78533591 42.01953125 0.09375 C54.65348487 -0.45173259 63.63059588 1.22192853 73.6640625 9.61328125 C76.18899745 12.0534569 78.48511334 14.28272669 80.0625 17.4375 C83.07500612 16.10654363 84.89890577 14.71221531 87.0625 12.25 C95.81235397 3.25499926 105.17954003 0.36913128 117.4375 0.125 C123.93116584 0.16987232 128.54241062 1.04858437 134.0625 4.4375 C135.6403125 5.3965625 135.6403125 5.3965625 137.25 6.375 C138.6421875 7.3959375 138.6421875 7.3959375 140.0625 8.4375 C141.0525 9.159375 142.0425 9.88125 143.0625 10.625 C153.73347321 19.78751103 156.74194123 33.12375632 157.875 46.496521 C158.51702434 56.56681488 158.4361827 66.68232208 158.43310547 76.76977539 C158.43290022 80.31679583 158.46048664 83.86303359 158.49464989 87.40986729 C158.51696004 90.17499868 158.5209422 92.93994036 158.51988602 95.70515251 C158.52334844 97.64159472 158.54492844 99.57797781 158.56698608 101.51429749 C158.53017601 108.60806842 158.03466941 113.4712177 154.0625 119.4375 C147.00740254 123.77909844 138.10565928 123.07335551 130.0625 122.4375 C125.02550017 121.10417651 122.39506949 119.51064049 119.0625 115.4375 C116.28183513 109.52934244 116.78361505 103.26926316 116.7890625 96.8828125 C116.76877473 94.38671426 116.74792397 91.89062054 116.7265625 89.39453125 C116.70396809 85.47538423 116.68749092 81.5564162 116.68164062 77.63720703 C116.67210094 73.84374978 116.63830697 70.05109033 116.6015625 66.2578125 C116.60913071 64.51058395 116.60913071 64.51058395 116.61685181 62.72805786 C116.53403647 55.85224718 115.83218653 51.25483308 112.0625 45.4375 C108.64328453 43.15802302 107.15939823 43.11236895 103.125 43.0625 C101.56458984 43.01996094 101.56458984 43.01996094 99.97265625 42.9765625 C97.03242898 43.24043046 97.03242898 43.24043046 94.80859375 44.8984375 C90.08454487 51.76785981 90.78187182 60.84468841 90.7890625 68.84765625 C90.76878349 71.2428433 90.7479329 73.63802556 90.7265625 76.03320312 C90.70394288 79.77453689 90.68747554 83.51568097 90.68164062 87.25708008 C90.67210261 90.89177895 90.63832436 94.52564484 90.6015625 98.16015625 C90.60660797 99.27181656 90.61165344 100.38347687 90.61685181 101.52882385 C90.53171592 108.2781213 89.69507777 112.69782657 86.0625 118.4375 C78.9346654 123.96157182 69.61597651 122.89572196 61.0625 122.4375 C56.3436175 121.62815678 53.71275601 120.23781509 50.625 116.4375 C48.46610059 112.29241314 47.93634338 109.39055113 47.9206543 104.77612305 C47.91010262 103.03367561 47.91010262 103.03367561 47.89933777 101.25602722 C47.89517349 99.99978043 47.89100922 98.74353363 47.88671875 97.44921875 C47.86946132 95.47647848 47.8521803 93.50373809 47.83351612 91.53101063 C47.7879752 86.66499016 47.75020234 81.79908329 47.73657227 76.93286133 C47.72842709 74.20347529 47.70982897 71.47454688 47.67964172 68.74531555 C47.65151194 66.1756053 47.63857888 63.60567359 47.64250183 61.03581238 C47.56059164 52.42102499 47.56059164 52.42102499 43.0625 45.4375 C38.60778708 42.46769139 34.28439681 42.68823809 29.0625 43.4375 C25.13942767 46.23969452 23.56887699 48.94609973 22.0625 53.4375 C21.75304423 56.15261371 21.75304423 56.15261371 21.77539062 59.03466797 C21.75526917 60.68195389 21.75526917 60.68195389 21.73474121 62.36251831 C21.72946411 63.53968414 21.72418701 64.71684998 21.71875 65.9296875 C21.7041272 67.14898956 21.68950439 68.36829163 21.67443848 69.62454224 C21.62796278 73.52049496 21.59375345 77.4163972 21.5625 81.3125 C21.5212962 86.43508278 21.46758521 91.55731061 21.40625 96.6796875 C21.4009729 97.85280487 21.3956958 99.02592224 21.39025879 100.23458862 C21.22040748 114.21965065 21.22040748 114.21965065 16.8125 118.75 C11.45360241 122.03841443 6.3930538 122.80066657 0.1875 122.75 C-0.51850342 122.74508545 -1.22450684 122.7401709 -1.9519043 122.73510742 C-7.34223653 122.61374559 -11.25360204 122.10089296 -15.9375 119.4375 C-18.87600906 115.64587541 -20.05691728 112.04957847 -20.08467102 107.28948975 C-20.09182632 106.44565231 -20.09898163 105.60181488 -20.10635376 104.73240662 C-20.10904266 103.80976517 -20.11173157 102.88712372 -20.11450195 101.93652344 C-20.12107315 100.96221878 -20.12764435 99.98791412 -20.13441467 98.98408508 C-20.15414891 95.75501429 -20.16581065 92.52599001 -20.17578125 89.296875 C-20.17985678 88.19407448 -20.1839323 87.09127396 -20.18813133 85.95505524 C-20.20899269 80.11798795 -20.2232941 74.28094417 -20.23266602 68.44384766 C-20.24372999 62.41682433 -20.27812992 56.39017024 -20.31783772 50.36327744 C-20.34399079 45.72724728 -20.35235672 41.09130527 -20.35594749 36.45520782 C-20.36081688 34.23368079 -20.37244081 32.01215779 -20.39098549 29.79070282 C-20.41534817 26.67885633 -20.41441683 23.56796748 -20.4074707 20.45605469 C-20.42028076 19.54151016 -20.43309082 18.62696564 -20.44628906 17.68470764 C-20.39819088 11.76151554 -19.39692836 8.28769694 -15.9375 3.4375 C-10.9553126 -0.18254404 -5.92870569 -0.04820086 0 0 Z " fill="#69B457" transform="translate(824.9375,329.5625)" data-index="4" style="visibility: visible; opacity: 1;"></path>
<path d="M0 0 C0.81984375 -0.02449219 1.6396875 -0.04898437 2.484375 -0.07421875 C8.92006134 -0.10525904 12.21946589 1.7635235 17.1875 5.875 C19.75277791 9.11535105 19.49747834 12.99461748 19.48852539 16.96972656 C19.48840454 18.10619629 19.48828369 19.24266602 19.48815918 20.41357422 C19.48304321 21.60225098 19.47792725 22.79092773 19.47265625 24.015625 C19.47164917 25.11245605 19.47064209 26.20928711 19.46960449 27.33935547 C19.4643745 31.43458096 19.45041323 35.52979153 19.4375 39.625 C19.416875 48.7825 19.39625 57.94 19.375 67.375 C39.175 67.375 58.975 67.375 79.375 67.375 C79.21700579 49.30542156 79.21700579 49.30542156 79.01464844 31.23632812 C79.00295855 28.95964306 78.99276743 26.6829496 78.984375 24.40625 C78.96391113 23.23803711 78.94344727 22.06982422 78.92236328 20.86621094 C78.91939172 13.8830455 79.55552061 9.28675329 83.375 3.375 C88.37303956 -0.42801957 93.78717275 -0.07600273 99.8125 0 C100.72837891 -0.01160156 101.64425781 -0.02320313 102.58789062 -0.03515625 C108.2542046 -0.01075002 112.50851593 0.36036385 117.375 3.375 C122.49160997 9.85021719 121.94303086 16.58548928 121.89257812 24.53686523 C121.89800423 25.97318225 121.90512963 27.40949369 121.91381836 28.84579468 C121.93199851 32.73229677 121.92500598 36.61837242 121.91230202 40.50488162 C121.90214471 44.5810703 121.91157544 48.65722351 121.91784668 52.7334137 C121.92511599 59.57860844 121.91555514 66.42363035 121.89648438 73.26879883 C121.87472561 81.16975661 121.88176247 89.0703013 121.90379 96.97124904 C121.92197489 103.76724851 121.92448701 110.56312402 121.91403532 117.35913998 C121.90781619 121.4126007 121.9069208 125.46586764 121.92018127 129.51931572 C121.93178402 133.33213259 121.92363424 137.14442001 121.90060425 140.95718002 C121.89534024 142.3519039 121.89679122 143.74667276 121.90565491 145.1413784 C121.95063959 152.94233526 121.76903078 158.78186565 117.375 165.375 C109.67141482 170.4560881 99.53467264 170.42383315 90.66796875 168.9140625 C86.53407745 167.74862051 84.71646348 166.77621959 81.875 163.4375 C79.73655367 159.07150541 79.2503539 155.72069814 79.26147461 150.87207031 C79.26159546 149.75590332 79.26171631 148.63973633 79.26184082 147.48974609 C79.26695679 146.32266113 79.27207275 145.15557617 79.27734375 143.953125 C79.27835083 142.87595215 79.27935791 141.7987793 79.28039551 140.68896484 C79.28562499 136.66763239 79.29958626 132.64631512 79.3125 128.625 C79.333125 119.6325 79.35375 110.64 79.375 101.375 C59.575 101.375 39.775 101.375 19.375 101.375 C19.53299421 119.44457844 19.53299421 119.44457844 19.73535156 137.51367188 C19.74704145 139.79035694 19.75723257 142.0670504 19.765625 144.34375 C19.78608887 145.51196289 19.80655273 146.68017578 19.82763672 147.88378906 C19.83060451 154.85809766 19.22157102 159.48423135 15.375 165.375 C7.72282833 170.42217706 -2.01023324 170.18733978 -10.8515625 169.1015625 C-15.90636099 167.92136726 -19.03897662 164.90536043 -21.74458408 160.58880234 C-22.88005344 157.73366913 -22.88588923 155.40220146 -22.89915466 152.3291626 C-22.90912979 151.08993042 -22.91910492 149.85069824 -22.92938232 148.57391357 C-22.93027809 147.2032472 -22.93094168 145.83258066 -22.93139648 144.46191406 C-22.93901938 143.01619031 -22.9474471 141.57047061 -22.95661926 140.12475586 C-22.97856144 136.19895311 -22.98736304 132.27322825 -22.99244571 128.3473711 C-22.99609033 125.89292542 -23.00233102 123.43850011 -23.0094471 120.98406219 C-23.03394291 112.4161235 -23.04699328 103.84824535 -23.05053711 95.28027344 C-23.05417006 87.30266661 -23.08404763 79.32544507 -23.12594169 71.34795594 C-23.16067646 64.49259193 -23.17608612 57.63735537 -23.17678314 50.78190398 C-23.17757503 46.69030016 -23.18627227 42.59908864 -23.21478081 38.50757599 C-23.2410157 34.65619547 -23.24313711 30.80553089 -23.22712517 26.95410156 C-23.2253148 25.54484237 -23.23196425 24.13554152 -23.24794388 22.72637177 C-23.3245894 15.52513994 -23.27310779 9.79507304 -19.06007481 3.76186752 C-14.40097046 -0.74072737 -6.05998823 0.00961903 0 0 Z " fill="#6AB457" transform="translate(1745.625,282.625)" data-index="5" style="visibility: visible;"></path>
<path d="M0 0 C1.16015625 -0.02416992 1.16015625 -0.02416992 2.34375 -0.04882812 C8.28310139 -0.0538108 14.24269552 0.3628649 18.68624783 4.72120571 C23.4557924 11.41262792 22.94811891 18.65484812 22.88110352 26.52172852 C22.8862479 28.05833765 22.89353309 29.59494088 22.90278625 31.13153076 C22.92124115 35.28657717 22.90840014 39.44097879 22.88869596 43.59599805 C22.87226195 47.95291673 22.88112881 52.30979611 22.88621521 56.66673279 C22.89073039 63.98096977 22.87490093 71.29495054 22.84692383 78.60913086 C22.81486248 87.0560151 22.81489414 95.50243765 22.8321386 103.94935471 C22.84802059 112.08872595 22.84126017 120.22792851 22.82420158 128.3672924 C22.81734296 131.82529143 22.81835124 135.28315475 22.82574654 138.74115181 C22.83342672 142.81499427 22.82122728 146.88831334 22.79389763 150.96206665 C22.78703125 152.45395797 22.78689708 153.94589834 22.79411316 155.43778801 C22.85498806 169.66641558 22.85498806 169.66641558 18.25 175.3125 C9.53712835 180.06497544 -1.20458191 180.8741243 -10.75 178.1875 C-15.08456 176.55908998 -16.67376056 174.3747076 -18.75 170.3125 C-19.58917969 170.90998047 -19.58917969 170.90998047 -20.4453125 171.51953125 C-30.70469611 178.29864164 -42.85002282 180.94054461 -54.953125 178.7265625 C-71.6125995 174.72682083 -83.76646046 163.71062844 -92.73168945 149.453125 C-101.35693374 135.26523698 -102.99460073 118.28250995 -99.25 102.1875 C-94.95999096 85.67964095 -83.07114259 72.14060159 -68.75 63.3125 C-57.53085461 57.51546087 -46.09908775 55.18875661 -33.5859375 58.03125 C-29.68475933 59.52891592 -26.49199826 61.46725516 -23.11010742 63.89770508 C-22.48061691 64.34946609 -21.8511264 64.80122711 -21.20256042 65.26667786 C-20.72321548 65.61179916 -20.24387054 65.95692047 -19.75 66.3125 C-19.75444122 65.69133301 -19.75888245 65.07016602 -19.76345825 64.43017578 C-19.8078472 57.94094147 -19.83793092 51.45175059 -19.85986328 44.96240234 C-19.8698951 42.5434392 -19.88352371 40.1244881 -19.90087891 37.70556641 C-19.92525107 34.22034727 -19.93651158 30.73528907 -19.9453125 27.25 C-19.95563507 26.17572754 -19.96595764 25.10145508 -19.97659302 23.99462891 C-19.97866317 10.01035541 -19.97866317 10.01035541 -15.375 4.4375 C-10.21936215 0.26388841 -6.47559605 -0.0264526 0 0 Z " fill="#6AB458" transform="translate(1570.75,272.6875)" data-index="6" style="visibility: visible;"></path>
<path d="M0 0 C3.48404064 2.97168173 4.94847303 5.94987619 5.38485718 10.55438232 C5.472444 13.99593175 5.46180814 17.42479039 5.41796875 20.8671875 C5.41372391 22.12387238 5.40947906 23.38055725 5.40510559 24.67532349 C5.39119122 27.99965735 5.36428624 31.3233623 5.33099365 34.64752197 C5.30018246 38.04620966 5.28657678 41.44496259 5.27148438 44.84375 C5.23845021 51.50017251 5.18827623 58.15629998 5.125 64.8125 C5.65681885 64.40692871 6.1886377 64.00135742 6.73657227 63.58349609 C7.79702759 62.78032959 7.79702759 62.78032959 8.87890625 61.9609375 C9.5757251 61.43161621 10.27254395 60.90229492 10.99047852 60.35693359 C19.64177814 54.09728343 28.76714928 53.68142765 39.125 54.8125 C54.96094227 57.90645866 68.2020077 68.79543868 77.08666992 81.87988281 C80.16956064 86.62575792 82.44145138 91.42165519 84.125 96.8125 C84.47949219 97.82183594 84.83398438 98.83117187 85.19921875 99.87109375 C88.61119006 112.05273136 87.60368915 128.51270363 82.125 139.8125 C81.774375 140.65167969 81.42375 141.49085938 81.0625 142.35546875 C74.55260679 156.93491708 62.59972474 167.53606473 48.125 173.8125 C47.33996094 174.17085937 46.55492188 174.52921875 45.74609375 174.8984375 C35.59682318 178.43782545 24.30066269 176.97398194 14.375 173.5 C10.64665932 171.5641308 7.47557351 169.3425249 4.125 166.8125 C3.8775 167.575625 3.63 168.33875 3.375 169.125 C1.54025837 173.06969451 -0.57139681 174.29561943 -4.5546875 175.875 C-13.13683829 178.29819552 -22.92887331 177.93837347 -30.875 173.8125 C-34.05519945 171.33288904 -34.80124311 168.63563752 -35.875 164.8125 C-36.12947559 161.65466309 -36.12947559 161.65466309 -36.13569641 158.20898438 C-36.14278122 156.89679932 -36.14986603 155.58461426 -36.15716553 154.23266602 C-36.15487203 152.790527 -36.15236237 151.34838831 -36.1496582 149.90625 C-36.1540083 148.3781713 -36.15919244 146.85009478 -36.16514587 145.32202148 C-36.17851352 141.18158543 -36.17911715 137.04124078 -36.17658257 132.90078735 C-36.17551158 129.44146747 -36.18039939 125.98216598 -36.185188 122.52285004 C-36.19627494 114.36157348 -36.19672483 106.20034295 -36.19067383 98.0390625 C-36.18463066 89.62408795 -36.19695559 81.20928046 -36.2182439 72.79433441 C-36.23586266 65.56359543 -36.24186092 58.33290962 -36.23860615 51.10214996 C-36.23679397 46.78607132 -36.23942326 42.47011191 -36.25332069 38.15405273 C-36.26589932 34.09595064 -36.26395472 30.03810909 -36.25090981 25.98001099 C-36.24854473 24.4925223 -36.25127627 23.00501526 -36.25953293 21.51754761 C-36.27000664 19.48372768 -36.26009362 17.44983347 -36.2492218 15.41601562 C-36.24938954 14.27894165 -36.24955729 13.14186768 -36.24973011 11.97033691 C-35.74521541 7.71881 -34.07009645 4.57369477 -31.6875 1.0625 C-23.75630372 -4.40729054 -8.59436343 -3.54984577 0 0 Z " fill="#6AB457" transform="translate(2059.875,275.1875)" data-index="7" style="visibility: visible;"></path>
<path d="M0 0 C1.67578125 1.36328125 1.67578125 1.36328125 3.80078125 3.48828125 C3.84203125 2.76640625 3.88328125 2.04453125 3.92578125 1.30078125 C5.19543238 -2.78024025 7.3780091 -3.99702901 10.80078125 -6.51171875 C14.52436612 -8.37351118 18.95237517 -7.78284857 23.05078125 -7.82421875 C23.99308594 -7.85322266 24.93539062 -7.88222656 25.90625 -7.91210938 C31.8984923 -7.96673711 35.22126451 -7.46109399 39.80078125 -3.51171875 C43.18036431 0.21747635 43.92026872 3.65825998 43.94122314 8.59796143 C43.94693329 9.40807175 43.95264343 10.21818207 43.95852661 11.05284119 C43.9602034 12.37294945 43.9602034 12.37294945 43.96191406 13.71972656 C43.96936142 15.12047173 43.96936142 15.12047173 43.97695923 16.54951477 C43.9915622 19.63848611 43.99838013 22.72740607 44.00390625 25.81640625 C44.00965968 27.96628826 44.01541739 30.11617026 44.0211792 32.26605225 C44.03168419 36.7751896 44.03753 41.28430916 44.04101562 45.79345703 C44.04649618 51.56133835 44.07051712 57.32898311 44.09898758 63.09679031 C44.11764506 67.53898803 44.12282124 71.98112915 44.1243515 76.42336273 C44.12737203 78.54915407 44.13538025 80.67494455 44.14853668 82.80069733 C44.16566035 85.78039855 44.16370129 88.75952686 44.15722656 91.73925781 C44.16644135 92.61123306 44.17565613 93.48320831 44.18515015 94.38160706 C44.14342055 100.53627023 43.49277863 106.79628387 38.92578125 111.36328125 C30.53093983 115.80760906 21.20053785 115.71486765 12.11328125 113.17578125 C8.92238764 112.16220328 6.93203507 111.10331661 4.80078125 108.48828125 C4.11328125 105.80078125 4.11328125 105.80078125 3.80078125 103.48828125 C3.14078125 103.48828125 2.48078125 103.48828125 1.80078125 103.48828125 C1.30578125 104.97328125 1.30578125 104.97328125 0.80078125 106.48828125 C-6.67119469 113.20282401 -17.67768874 115.10575135 -27.4140625 114.76953125 C-42.02641446 113.29395013 -51.92205565 106.59184362 -62.19921875 96.48828125 C-62.83859375 95.86179687 -63.47796875 95.2353125 -64.13671875 94.58984375 C-75.5312369 82.5340366 -79.68006292 67.79651412 -79.48510742 51.58837891 C-79.32123432 46.01416274 -78.76845594 40.83631373 -77.19921875 35.48828125 C-76.95429687 34.61042969 -76.709375 33.73257813 -76.45703125 32.828125 C-71.57211652 17.46009679 -59.08373477 4.35158672 -45.015625 -3.140625 C-44.08621094 -3.59308594 -43.15679688 -4.04554688 -42.19921875 -4.51171875 C-41.48636719 -4.87136719 -40.77351562 -5.23101562 -40.0390625 -5.6015625 C-26.79691064 -11.13826183 -11.44106489 -7.86446201 0 0 Z " fill="#69B456" transform="translate(743.19921875,337.51171875)" data-index="8" style="visibility: visible; opacity: 1;"></path>
<path d="M0 0 C13.39604636 10.30612736 23.3478192 22.01109591 27.03515625 38.88671875 C27.31512407 41.08308599 27.44535552 43.22439849 27.5 45.4375 C27.53867188 46.24058594 27.57734375 47.04367187 27.6171875 47.87109375 C27.92054775 59.21339632 27.2220543 71.43337858 21.5 81.4375 C21.09007812 82.22125 20.68015625 83.005 20.2578125 83.8125 C11.02836495 100.49850687 -2.85625382 109.53644909 -20.5 115.4375 C-36.90927212 119.14137127 -54.3813792 116.677415 -68.84375 108.19140625 C-82.98939365 98.85112095 -94.87203463 85.72130686 -98.66796875 68.76953125 C-101.23824193 54.51448367 -101.66615352 38.33274417 -94.5 25.4375 C-94.10039063 24.60089844 -93.70078125 23.76429688 -93.2890625 22.90234375 C-85.69079174 8.37352905 -70.96561697 -3.06960387 -55.5625 -8 C-37.1861982 -13.18067674 -15.92923016 -11.04006051 0 0 Z " fill="#69B457" transform="translate(1430.5,337.5625)" data-index="9" style="visibility: visible; opacity: 1;"></path>
<path d="M0 0 C1.15048828 -0.01611328 2.30097656 -0.03222656 3.48632812 -0.04882812 C18.54942208 -0.05736246 31.21710185 4.37417957 42.234375 14.78515625 C50.36266021 23.60898264 54.90687565 33.41484643 55.5625 45.3125 C55.62695312 46.18003906 55.69140625 47.04757812 55.7578125 47.94140625 C56.09184 55.7687841 54.97423044 63.33456749 49.7265625 69.453125 C44.29419024 74.40678247 38.98527504 77.70148782 31.46533203 77.65307617 C30.28456085 77.65284958 29.10378967 77.65262299 27.88723755 77.65238953 C25.99785965 77.62916374 25.99785965 77.62916374 24.0703125 77.60546875 C22.76923553 77.60122391 21.46815857 77.59697906 20.12765503 77.59260559 C16.68504237 77.58120479 13.24281533 77.55177974 9.800354 77.51849365 C6.28101822 77.48768917 2.76161953 77.4740782 -0.7578125 77.45898438 C-7.65119909 77.42690462 -14.54433098 77.37576684 -21.4375 77.3125 C-20.52013062 78.98324585 -20.52013062 78.98324585 -19.58422852 80.68774414 C-19.240215 81.31427383 -18.89620148 81.94080353 -18.54176331 82.58631897 C-15.6141933 87.16268747 -10.42630041 88.83047143 -5.4375 90.3125 C5.51367649 91.99502577 15.08628062 90.28973179 25.3203125 86.44921875 C29.53479092 84.97161246 33.19466806 84.08100175 37.5625 85.3125 C44.29830696 89.00979923 47.22375731 95.29627194 49.5625 102.3125 C50.10475459 106.97944522 50.0323456 110.39021048 47.875 114.625 C43.35494718 119.87803436 39.12828657 122.12207788 32.625 124 C31.58956055 124.31807617 31.58956055 124.31807617 30.53320312 124.64257812 C9.97340954 130.82026018 -16.27977387 129.69464986 -35.4375 119.9375 C-36.79033101 119.0929581 -38.12430101 118.21743712 -39.4375 117.3125 C-40.18128906 116.82265625 -40.92507813 116.3328125 -41.69140625 115.828125 C-53.37701668 107.52363028 -61.7723262 93.03538062 -64.875 79.0625 C-67.31388348 61.10588537 -66.15705236 42.90813155 -56.4375 27.3125 C-53.67915452 23.69402528 -50.69454095 20.48382935 -47.4375 17.3125 C-46.55191406 16.37857422 -46.55191406 16.37857422 -45.6484375 15.42578125 C-41.47076092 11.33092205 -36.72436709 8.65391933 -31.5625 6 C-30.91466553 5.66210449 -30.26683105 5.32420898 -29.59936523 4.97607422 C-20.08313533 0.30951827 -10.45039464 -0.02917475 0 0 Z " fill="#6AB457" transform="translate(1063.4375,327.6875)" data-index="10" style="visibility: visible; opacity: 1;"></path>
<path d="M0 0 C0.82564453 -0.020625 1.65128906 -0.04125 2.50195312 -0.0625 C8.29127595 -0.09899691 12.55595734 0.77257868 17.8125 3.25 C21.92306576 8.20375874 22.92545383 12.17689372 22.97021484 18.45825195 C22.98047699 19.49645584 22.99073914 20.53465973 23.00131226 21.60432434 C23.00861359 22.72103012 23.01591492 23.8377359 23.0234375 24.98828125 C23.05150607 27.35873086 23.08017053 29.72917348 23.109375 32.09960938 C23.15062262 35.8322734 23.18751628 39.56480681 23.21386719 43.29760742 C23.24151927 46.90310543 23.28739088 50.50801205 23.3359375 54.11328125 C23.33919037 55.22391434 23.34244324 56.33454742 23.34579468 57.47883606 C23.45102172 64.13337472 23.75629927 69.78163988 28.34765625 74.9921875 C33.21219889 78.6001603 35.49097563 79.42314526 41.5625 79.5 C42.77421875 79.52578125 43.9859375 79.5515625 45.234375 79.578125 C49.79499583 79.15990213 53.05743934 77.85081542 56.45703125 74.75 C59.95348696 70.25956858 60.93457786 67.38442498 60.9543457 61.7722168 C60.96138016 60.65062668 60.96841461 59.52903656 60.97566223 58.37345886 C60.98190865 56.55471001 60.98190865 56.55471001 60.98828125 54.69921875 C61.01147845 52.13866364 61.03559574 49.57811674 61.06054688 47.01757812 C61.09692432 42.97534165 61.12669792 38.9332577 61.13842773 34.89086914 C61.15389719 30.9932796 61.19410251 27.09657476 61.23828125 23.19921875 C61.23637283 21.99279221 61.23446442 20.78636566 61.23249817 19.54338074 C61.3257707 13.14619538 61.50122615 9.1137766 65.8125 4.25 C66.225 3.651875 66.6375 3.05375 67.0625 2.4375 C71.77014463 -0.75697314 79.92421087 0.03986266 85.5 0 C86.23283203 -0.020625 86.96566406 -0.04125 87.72070312 -0.0625 C92.31092272 -0.09561249 95.25696709 0.2860181 98.8125 3.25 C103.26968444 8.51648709 103.38737615 12.69004287 103.33007812 19.27514648 C103.3370874 20.26939636 103.34409668 21.26364624 103.35131836 22.2880249 C103.36888524 25.56600086 103.35727885 28.8431094 103.34375 32.12109375 C103.34644549 34.40503606 103.35032839 36.68897726 103.35534668 38.97291565 C103.36124016 43.756876 103.35268406 48.54053733 103.33398438 53.32446289 C103.31120825 59.44900317 103.32431096 65.57284175 103.34827423 71.69735622 C103.36274704 76.41320557 103.3581191 81.12888932 103.34776306 85.84474373 C103.34509923 88.10253037 103.34835342 90.36033217 103.35768127 92.61810112 C103.36786945 95.7776238 103.3523124 98.93601994 103.33007812 102.09545898 C103.33817505 103.02399185 103.34627197 103.95252472 103.35461426 104.90919495 C103.27728837 110.8571439 102.2610013 114.36567615 98.8125 119.25 C92.4166192 123.92758447 82.24942797 122.84856201 74.8125 122.25 C70.56987811 121.43918782 67.68276616 120.31677787 64.875 116.875 C63.84051572 114.31921532 63.31396605 111.95159189 62.8125 109.25 C61.88630859 110.04664063 61.88630859 110.04664063 60.94140625 110.859375 C52.20633568 118.14524817 44.01707511 122.72596455 32.46484375 122.5859375 C20.43922981 121.47983825 9.78736473 117.44192015 0.8125 109.25 C0.02488281 108.53199219 -0.76273438 107.81398438 -1.57421875 107.07421875 C-6.26642601 102.33421311 -9.59022258 97.19981517 -12.625 91.3125 C-12.9552417 90.68085938 -13.2854834 90.04921875 -13.62573242 89.3984375 C-18.49777978 79.34067524 -18.53205719 68.39027074 -18.59375 57.421875 C-18.59940475 56.73461586 -18.60505951 56.04735672 -18.61088562 55.33927155 C-18.64060017 51.7131453 -18.65923651 48.0871731 -18.66796875 44.4609375 C-18.67899769 40.73621927 -18.72724809 37.01294134 -18.78391266 33.28867722 C-18.82125805 30.40089783 -18.8315806 27.5134658 -18.8346405 24.62546539 C-18.84065813 23.25237264 -18.85659536 21.87928341 -18.88301086 20.50643158 C-19.09765855 8.51107011 -19.09765855 8.51107011 -15.33398438 3.91894531 C-10.87783114 -0.47617187 -5.87439759 0.03584682 0 0 Z " fill="#6AB457" transform="translate(1903.1875,329.75)" data-index="11" style="visibility: visible;"></path>
<path d="M0 0 C1.41297363 -0.00845947 1.41297363 -0.00845947 2.85449219 -0.01708984 C12.38206293 0.08128724 21.21267 1.579455 30.0625 5.125 C30.68640625 5.36025391 31.3103125 5.59550781 31.953125 5.83789062 C36.30107368 7.5853257 39.21666724 9.69439082 42.1875 13.3125 C44.03285674 18.68362214 41.80204003 23.73465589 39.5 28.625 C37.32779337 32.91889683 35.30108697 35.74077252 31.1875 38.3125 C25.70471879 39.77542306 22.27204254 39.00986747 17.0625 36.9375 C10.88109861 34.51633841 5.83272108 33.16738024 -0.8125 33.125 C-1.823125 33.11082031 -2.83375 33.09664063 -3.875 33.08203125 C-6.9010919 33.31945069 -9.07477757 34.03925777 -11.8125 35.3125 C-11.94065365 37.6977733 -11.94065365 37.6977733 -10.8125 40.3125 C-5.61136281 44.04003694 -0.02112884 44.96450757 6.1875 45.625 C18.06134927 47.18584323 31.25501874 51.39542425 39.9453125 60.06640625 C47.94427986 70.64789736 49.39481478 81.41157268 48.1875 94.3125 C46.66784335 103.94536487 41.62374543 111.72083495 34.19873047 117.91650391 C30.77623834 120.29205744 27.0872916 121.43862578 23.125 122.625 C22.34833984 122.87572266 21.57167969 123.12644531 20.77148438 123.38476562 C-0.29658613 130.03877943 -22.81346904 127.53030647 -42.5625 118.3125 C-47.34012255 115.76967757 -51.32901691 113.27946619 -53.8125 108.3125 C-54.77722417 99.3084077 -50.9058983 92.73729822 -45.5625 85.6875 C-42.98604267 82.93853689 -41.29271602 81.76317281 -37.5 81.5625 C-29.40269674 82.34478184 -22.12251702 86.53540636 -15.0390625 90.26171875 C-10.80242303 92.26111527 -7.0493854 92.49765303 -2.375 92.5625 C-1.26253906 92.58828125 -0.15007812 92.6140625 0.99609375 92.640625 C4.49186338 92.28120683 6.35028024 91.32772151 9.1875 89.3125 C8.8575 88.3225 8.5275 87.3325 8.1875 86.3125 C3.52014456 84.06857911 -0.6229412 83.16076408 -5.75 82.5625 C-17.78924577 80.8806496 -32.57505694 75.38743542 -40.76171875 66.1015625 C-49.7694025 54.12908556 -51.2776381 41.91579115 -49.8125 27.3125 C-48.10678873 18.96561705 -43.26841843 12.59855356 -36.4765625 7.58984375 C-25.26741647 0.73981006 -12.78823961 0.0723083 0 0 Z " fill="#6AB457" transform="translate(1660.8125,327.6875)" data-index="12" style="visibility: visible;"></path>
<path d="M0 0 C8.96399089 6.33635537 15.16397129 15.73472696 17.51953125 26.4609375 C18.88120198 40.15501245 15.8402547 50.56196172 7.51953125 61.4609375 C1.52967374 68.18528071 -6.04345753 71.64860043 -14.48046875 74.4609375 C-30.22920441 75.27823715 -40.89586738 73.70815263 -53.16796875 63.1484375 C-63.09408566 51.61268 -65.94350932 40.95262176 -64.82080078 25.91845703 C-63.39145012 15.59719182 -56.56189498 6.69116815 -48.48046875 0.4609375 C-33.16603634 -9.34694866 -15.5717684 -9.66185315 0 0 Z " fill="#3C7442" transform="translate(263.48046875,235.5390625)" data-index="13" style="visibility: visible;"></path>
<path d="M0 0 C6.43758156 4.24295148 10.70940718 9.60043517 13 17 C14.39390146 26.33790625 12.09522038 33.76193474 7.375 41.75 C-0.42707884 49.14144311 -8.10453082 51.45370481 -18.609375 51.3359375 C-25.8319961 50.62033218 -31.04755698 47.37224574 -35.9375 42.125 C-42.46663578 33.79419232 -43.02465515 26.5084078 -42 16 C-40.43728042 10.46326773 -37.30228972 6.77762024 -33 3 C-32.2575 2.29875 -31.515 1.5975 -30.75 0.875 C-20.92480979 -5.82399333 -10.24738392 -5.569949 0 0 Z " fill="#3C7542" transform="translate(235,152)" data-index="14" style="visibility: visible;"></path>

<path d="M0 0 C5.53838675 5.26146741 9.49165464 9.84918289 9.8125 17.75 C9.65702762 22.95832473 8.57089002 27.15582403 4.91796875 31.0703125 C-0.96651299 36.37788427 -5.97181605 37.80731543 -13.8515625 37.6171875 C-19.23259622 37.12511657 -22.22884906 34.87579924 -25.75 31 C-29.90540119 25.76767546 -30.97656032 21.52656784 -30.80859375 14.8671875 C-30.00459873 8.37416441 -26.03176304 4.57740396 -21.18359375 0.5390625 C-15.462012 -3.41692674 -6.0193023 -2.79467607 0 0 Z " fill="#FAFCF9" transform="translate(172.5,584.625)" data-index="16" style="visibility: visible;"></path>
<path d="M0 0 C5.63885541 3.01471274 8.79324663 7.34573301 10.8046875 13.27734375 C11.43314014 18.64111395 11.76008382 24.29792175 9.2421875 29.21484375 C5.76479819 33.58387134 2.11784952 36.50628974 -3.1953125 38.27734375 C-10.13542186 38.99705879 -15.81230125 38.99396529 -21.57421875 34.77734375 C-25.5471263 31.10120761 -27.95172174 27.0087549 -28.43359375 21.60546875 C-28.59645471 14.85102487 -28.36496078 10.68661719 -24.1953125 5.27734375 C-17.61324672 -0.96718019 -8.72201349 -2.87112544 0 0 Z " fill="#F9FCF9" transform="translate(468.1953125,583.72265625)" data-index="17" style="visibility: visible;"></path>

<path d="M0 0 C4.79418301 3.53856365 9.14688171 8.02502683 10.625 13.9375 C11.53455365 20.56424804 9.16604145 25.48263196 5.625 30.9375 C2.39311182 34.49175042 -1.63811376 37.49507102 -6.453125 38.2734375 C-12.23640438 38.37745332 -16.70101011 37.47989234 -21.375 33.9375 C-26.2029296 28.71348749 -29.91497339 23.40842249 -29.68359375 16.0859375 C-28.73680362 9.49436062 -25.07598136 5.16747809 -20.05859375 1.06640625 C-14.52690529 -2.64277696 -6.07707112 -1.91315202 0 0 Z " fill="#FCFDFC" transform="translate(1540.375,373.0625)" data-index="19" style="visibility: visible;"></path>
<path d="M0 0 C5.34513815 2.12299853 9.87401672 5.70209873 12.4140625 10.9453125 C13.96962804 16.40016232 13.65375093 21.87530947 12 27.25 C8.33687733 32.28679367 3.25431257 37.59277967 -3 39 C-9.36473904 39.62603991 -13.68496533 38.61043558 -19 35 C-23.67790039 30.44852935 -25.70225229 24.82860326 -26.375 18.4375 C-25.70265255 12.274315 -23.23535787 7.48449657 -19 3 C-13.12799556 -1.26394668 -6.98430701 -0.94466237 0 0 Z " fill="#FCFDFC" transform="translate(2092,372)" data-index="20" style="visibility: visible;"></path>
<path d="M0 0 C5.28763623 3.08861927 9.7214355 7.172119 11.69140625 13.08203125 C12.61750244 20.23290056 11.96995644 25.41387775 7.51171875 31.19921875 C2.80125006 36.07142027 -1.73227582 37.30833881 -8.43359375 37.58203125 C-14.37608177 37.35778642 -17.59470933 35.92197041 -21.73828125 31.5859375 C-26.55545286 26.1291979 -26.77762883 21.43434387 -26.71484375 14.38671875 C-25.99210358 8.50750545 -23.05049919 5.47608301 -18.73828125 1.7109375 C-13.2976746 -2.08697391 -6.09461694 -2.42340944 0 0 Z " fill="#3D7543" transform="translate(175.30859375,216.91796875)" data-index="21" style="visibility: visible;"></path>

<path d="M0 0 C4.57015831 1.82806332 6.87647372 4.58959926 9 9 C9.43925555 13.80597244 8.63796335 17.69029559 5.625 21.5 C1.81533508 25.12825231 -1.577407 25.45496793 -6.640625 25.421875 C-10.72553266 24.69146105 -13.4241315 22.15083914 -16 19 C-17.2517847 15.24464589 -17.77373976 11.88289586 -17 8 C-12.5343619 0.81375776 -8.21802416 -0.77043976 0 0 Z " fill="#3E7644" transform="translate(196,112)" data-index="23" style="visibility: visible;"></path>
<path d="M0 0 C3.34139976 0.02999461 4.22721051 0.29795352 7.1875 2.1875 C10.32093316 5.41588568 10.64218693 7.76179709 10.609375 12.2734375 C10.0067698 15.69256698 7.88213933 17.24439052 5.25 19.3125 C2.11128812 20.88185594 -0.28855822 20.66451103 -3.75 20.3125 C-7.62949018 17.10770377 -9.55826445 15.00616403 -10.125 10 C-9.65786625 5.40651813 -8.22959782 4.19802015 -4.75 1.3125 C-3.75 0.3125 -3.75 0.3125 0 0 Z " fill="#3F7745" transform="translate(160.75,160.6875)" data-index="24" style="visibility: visible;"></path>
<path d="M0 0 C2.74703988 2.39258312 2.97154858 3.80439649 3.5 7.4375 C2.8699946 11.92628845 1.54128144 13.26355525 -2 16 C-3.875 17 -3.875 17 -6 17 C-12.49253731 14.76119403 -12.49253731 14.76119403 -15 11 C-15.25760279 8.30547479 -15.08900053 5.71451625 -15 3 C-14.34 3 -13.68 3 -13 3 C-12.67 2.01 -12.34 1.02 -12 0 C-7.63222494 -2.69774342 -4.60997267 -1.87813701 0 0 Z " fill="#6BB558" transform="translate(168,595)" data-index="25" style="visibility: visible;"></path>
<path d="M0 0 C2.35412908 1.64789036 2.88144941 2.6534675 3.8125 5.375 C4.08758443 9.22618196 2.97878352 11.69495531 0.6875 14.75 C-1.62546965 16.46331085 -3.11444926 16.86578834 -6 17 C-9.52439052 15.73121941 -11.52758488 14.5638503 -13.9375 11.6875 C-15.29551069 8.25253178 -15.11851546 6.50468176 -14 3 C-9.58760924 -2.44194861 -6.38828833 -2.28153155 0 0 Z " fill="#6BB558" transform="translate(465,595)" data-index="26" style="visibility: visible;"></path>
</svg>